<svg xmlns="http://www.w3.org/2000/svg" width="408.26" height="281.597" viewBox="0 0 408.26 281.597">
  <g id="Group_4554" data-name="Group 4554" transform="translate(-22187.801 -1251.6)">
    <path id="Path_13150" data-name="Path 13150" d="M1056.079,572.306a1.4,1.4,0,1,0-1.4,1.4,1.4,1.4,0,0,0,1.4-1.4Zm1.378,0a2.781,2.781,0,1,1-2.78-2.782,2.784,2.784,0,0,1,2.78,2.782Z" transform="translate(21445.24 813.983)" fill="#91a6cf"/>
    <path id="Path_13151" data-name="Path 13151" d="M1118.092,432.148h-15.754a.689.689,0,1,0,0,1.378h15.754a.689.689,0,1,0,0-1.378Z" transform="translate(21431.365 852.297)" fill="#91a6cf"/>
    <path id="Path_13152" data-name="Path 13152" d="M1094.2,432.145h-3.078a.689.689,0,1,0,0,1.378h3.078a.689.689,0,1,0,0-1.378Z" transform="translate(21434.494 852.298)" fill="#91a6cf"/>
    <path id="Path_13153" data-name="Path 13153" d="M1095.254,439.493a.689.689,0,0,1-.689.689h-3.445a.689.689,0,1,1,0-1.379h3.445a.689.689,0,0,1,.689.689Zm6.892,0a.689.689,0,0,1-.69.689h-3.446a.689.689,0,0,1,0-1.379h3.446a.689.689,0,0,1,.69.689Zm5.416,0a.689.689,0,0,1-.689.689H1104.9a.689.689,0,0,1,0-1.379h1.971a.689.689,0,0,1,.689.689Z" transform="translate(21434.494 850.44)" fill="#91a6cf"/>
    <path id="Path_13154" data-name="Path 13154" d="M769.734,496.04a.69.69,0,0,0-.689.689v1.6a.689.689,0,0,0,1.379,0v-1.6a.69.69,0,0,0-.689-.689Z" transform="translate(21524.127 834.477)" fill="#91a6cf"/>
    <path id="Path_13155" data-name="Path 13155" d="M766.615,493.816h-1.6a.689.689,0,0,0,0,1.379h1.6a.689.689,0,0,0,0-1.379Z" transform="translate(21525.443 835.098)" fill="#91a6cf"/>
    <path id="Path_13156" data-name="Path 13156" d="M769.734,489.224a.689.689,0,0,0-.689.689v1.6a.689.689,0,1,0,1.379,0v-1.6a.689.689,0,0,0-.689-.689Z" transform="translate(21524.127 836.379)" fill="#91a6cf"/>
    <path id="Path_13157" data-name="Path 13157" d="M773.835,493.664h-1.6a.689.689,0,0,0,0,1.379h1.6a.689.689,0,1,0,0-1.379Z" transform="translate(21523.428 835.14)" fill="#91a6cf"/>
    <path id="Path_13158" data-name="Path 13158" d="M1010.135,434.076a.689.689,0,0,0-.689.689v1.6a.689.689,0,0,0,1.378,0v-1.6a.689.689,0,0,0-.689-.689Z" transform="translate(21457.08 851.759)" fill="#91a6cf"/>
    <path id="Path_13159" data-name="Path 13159" d="M1007.015,431.852h-1.6a.689.689,0,1,0,0,1.378h1.6a.689.689,0,1,0,0-1.378Z" transform="translate(21458.395 852.379)" fill="#91a6cf"/>
    <path id="Path_13160" data-name="Path 13160" d="M1010.135,427.259a.689.689,0,0,0-.689.689v1.6a.689.689,0,0,0,1.378,0v-1.6a.689.689,0,0,0-.689-.689Z" transform="translate(21457.08 853.66)" fill="#91a6cf"/>
    <path id="Path_13161" data-name="Path 13161" d="M1014.236,431.7h-1.6a.689.689,0,1,0,0,1.378h1.6a.689.689,0,0,0,0-1.378Z" transform="translate(21456.381 852.422)" fill="#91a6cf"/>
    <path id="Path_13162" data-name="Path 13162" d="M914.937,386.6H899.183a.689.689,0,0,0,0,1.378h15.754a.689.689,0,1,0,0-1.378Z" transform="translate(21488.025 864.999)" fill="#91a6cf"/>
    <path id="Path_13163" data-name="Path 13163" d="M891.039,386.6h-3.078a.689.689,0,1,0,0,1.378h3.078a.689.689,0,1,0,0-1.378Z" transform="translate(21491.154 865)" fill="#91a6cf"/>
    <path id="Path_13164" data-name="Path 13164" d="M892.1,393.949a.689.689,0,0,1-.689.689h-3.446a.689.689,0,1,1,0-1.378h3.446a.689.689,0,0,1,.689.689Zm6.892,0a.689.689,0,0,1-.689.689h-3.446a.689.689,0,1,1,0-1.378H898.3a.689.689,0,0,1,.689.689Zm5.416,0a.689.689,0,0,1-.689.689h-1.97a.689.689,0,1,1,0-1.378h1.97a.689.689,0,0,1,.689.689Z" transform="translate(21491.154 863.143)" fill="#91a6cf"/>
    <path id="Path_13165" data-name="Path 13165" d="M1156.128,485.793a2.434,2.434,0,1,0,2.434-2.434,2.433,2.433,0,0,0-2.434,2.434Z" transform="translate(21416.17 838.014)" fill="#91a6cf"/>
    <path id="Path_13166" data-name="Path 13166" d="M713.435,651.56h15.754a.689.689,0,1,0,0-1.378H713.435a.689.689,0,1,0,0,1.378Z" transform="translate(21539.828 791.488)" fill="#91a6cf"/>
    <path id="Path_13167" data-name="Path 13167" d="M702.213,651.564h3.079a.689.689,0,0,0,0-1.378h-3.079a.689.689,0,0,0,0,1.378Z" transform="translate(21542.959 791.487)" fill="#91a6cf"/>
    <path id="Path_13168" data-name="Path 13168" d="M1123.839,667.636s.941,6.713-6.9,6.558c0,0,6.736.069,6.559,6.368,0,0,.605-4.955,6.786-6.062,0,0-5.223,1.2-6.445-6.864Z" transform="translate(21427.102 786.62)" fill="#91a6cf"/>
    <path id="Path_13169" data-name="Path 13169" d="M1175.758,536.323s.94,6.713-6.9,6.558c0,0,6.737.068,6.559,6.368,0,0,.606-4.955,6.787-6.062,0,0-5.223,1.2-6.445-6.864Z" transform="translate(21412.621 823.243)" fill="#91a6cf"/>
    <path id="Path_13170" data-name="Path 13170" d="M830.852,410.28s.942,6.713-6.9,6.558c0,0,6.736.069,6.559,6.369,0,0,.606-4.956,6.787-6.063,0,0-5.224,1.2-6.446-6.863Z" transform="translate(21508.814 858.396)" fill="#91a6cf"/>
    <path id="Path_13171" data-name="Path 13171" d="M737.24,435.991s.941,6.713-6.9,6.558c0,0,6.736.069,6.559,6.368,0,0,.6-4.955,6.786-6.062,0,0-5.223,1.2-6.445-6.863Z" transform="translate(21534.922 851.225)" fill="#91a6cf"/>
    <path id="Path_13249" data-name="Path 13249" d="M712.733,550.981a1.129,1.129,0,0,1-1.125-1.058c-.118-1.847-.177-3.792-.177-5.777v-.458q.005-1.473.053-2.953a1.129,1.129,0,0,1,1.129-1.093h.037a1.131,1.131,0,0,1,1.093,1.166c-.032.964-.05,1.927-.054,2.883v.454c0,1.939.06,3.834.174,5.633a1.129,1.129,0,0,1-1.056,1.2Zm3.606,17.735a1.131,1.131,0,0,1-1.057-.733,55.374,55.374,0,0,1-2.541-8.907,1.13,1.13,0,1,1,2.219-.434,53.132,53.132,0,0,0,2.437,8.543,1.132,1.132,0,0,1-1.058,1.531Zm8.952,15.722a1.132,1.132,0,0,1-.884-.425,60.364,60.364,0,0,1-5.189-7.659,1.131,1.131,0,0,1,1.966-1.118,57.928,57.928,0,0,0,4.993,7.368,1.129,1.129,0,0,1-.885,1.834Zm13.32,12.239a1.125,1.125,0,0,1-.626-.189,60,60,0,0,1-7.272-5.713,1.13,1.13,0,0,1,1.531-1.663,57.792,57.792,0,0,0,7,5.495,1.129,1.129,0,0,1-.629,2.07Zm16.369,7.711a1.089,1.089,0,0,1-.331-.052,65.42,65.42,0,0,1-8.615-3.311,1.13,1.13,0,0,1,.961-2.047,63.429,63.429,0,0,0,8.317,3.2,1.131,1.131,0,0,1-.332,2.212Zm17.836,3.262a.919.919,0,0,1-.1,0c-3.112-.267-6.176-.666-9.1-1.186a1.131,1.131,0,0,1-.915-1.312,1.149,1.149,0,0,1,1.312-.914c2.859.509,5.854.9,8.9,1.16a1.13,1.13,0,0,1-.1,2.256Zm10.918.445c-.619,0-1.241,0-1.861-.01a1.13,1.13,0,0,1-1.117-1.143,1.1,1.1,0,0,1,1.142-1.116c2.928.033,5.832-.014,9.02-.147h.048a1.13,1.13,0,0,1,.048,2.259c-2.553.106-4.936.157-7.28.157Z" transform="translate(21540.195 822.317)" fill="#3e5aa7"/>
    <path id="Path_13172" data-name="Path 13172" d="M795.719,396.2s.328,2.339-2.4,2.286c0,0,2.348.024,2.285,2.22a2.665,2.665,0,0,1,2.366-2.114s-1.821.418-2.246-2.392Z" transform="translate(21517.359 862.323)" fill="#91a6cf"/>
    <path id="Path_13173" data-name="Path 13173" d="M966.01,508.07s.328,2.339-2.4,2.286c0,0,2.348.024,2.285,2.22a2.665,2.665,0,0,1,2.366-2.114s-1.821.417-2.246-2.392Z" transform="translate(21469.865 831.122)" fill="#91a6cf"/>
    <path id="Path_13174" data-name="Path 13174" d="M650.487,563.533s.327,2.339-2.4,2.286c0,0,2.348.024,2.285,2.22a2.664,2.664,0,0,1,2.365-2.113s-1.82.417-2.246-2.393Z" transform="translate(21557.863 815.654)" fill="#91a6cf"/>
    <path id="Path_13175" data-name="Path 13175" d="M933.633,651.014s.327,2.339-2.4,2.286c0,0,2.347.024,2.284,2.22a2.665,2.665,0,0,1,2.366-2.114s-1.821.417-2.245-2.392Z" transform="translate(21478.895 791.256)" fill="#91a6cf"/>
    <path id="Path_13257" data-name="Path 13257" d="M995.346,541.35H949.1a8.235,8.235,0,0,0-8.235,8.235v26.668a8.229,8.229,0,0,0,7.632,8.2l-9.537,15.627,25.133-15.6h31.253a8.235,8.235,0,0,0,8.235-8.236V549.585a8.235,8.235,0,0,0-8.235-8.235Z" transform="translate(21476.74 821.841)" fill="#91a6cf"/>
    <path id="Path_13176" data-name="Path 13176" d="M783.133,587.834a2.5,2.5,0,1,0,0,5h15.3a2.5,2.5,0,1,0,0-5h-1.765l-.071-.443a2.935,2.935,0,0,0-3.621-2.418l-.386.093-.194-.347a4.442,4.442,0,0,0-8.324,2.16c0,.13.009.257.019.384l.048.57Zm15.3,6.047h-15.3a3.549,3.549,0,0,1-.113-7.1,5.492,5.492,0,0,1,10.092-2.905,3.984,3.984,0,0,1,4.424,2.9h.894a3.549,3.549,0,1,1,0,7.1Z" transform="translate(21521.188 810.674)" fill="#91a6cf"/>
    <path id="Path_13177" data-name="Path 13177" d="M1161.572,408.308a2.5,2.5,0,0,0,0,5h15.3a2.5,2.5,0,1,0,0-5H1175.1l-.071-.443a2.936,2.936,0,0,0-3.62-2.417l-.387.092-.194-.347a4.442,4.442,0,0,0-8.324,2.16c0,.131.009.258.02.385l.049.57Zm15.3,6.047h-15.3a3.549,3.549,0,0,1-.113-7.1,5.491,5.491,0,0,1,10.092-2.905,3.985,3.985,0,0,1,4.424,2.9h.894a3.549,3.549,0,1,1,0,7.1Z" transform="translate(21415.643 860.744)" fill="#91a6cf"/>
    <path id="Path_13178" data-name="Path 13178" d="M833.107,462.47a2.5,2.5,0,0,0,0,5h15.3a2.5,2.5,0,0,0,0-5h-1.765l-.071-.443a2.936,2.936,0,0,0-3.62-2.417l-.386.092-.194-.347a4.442,4.442,0,0,0-8.324,2.16c0,.13.009.258.02.384l.048.57Zm15.3,6.047h-15.3a3.549,3.549,0,0,1-.113-7.1,5.492,5.492,0,0,1,10.092-2.906,3.986,3.986,0,0,1,4.424,2.9h.894a3.549,3.549,0,1,1,0,7.1Z" transform="translate(21507.25 845.638)" fill="#91a6cf"/>
    <path id="Path_13179" data-name="Path 13179" d="M912.252,722.5h0a12.363,12.363,0,0,1-15.262-8.53L887.181,679.3a12.362,12.362,0,0,1,8.53-15.261h0a12.362,12.362,0,0,1,15.261,8.53l9.81,34.668a12.364,12.364,0,0,1-8.53,15.261Z" transform="translate(21491.311 787.754)" fill="#92c6df"/>
    <path id="Path_13180" data-name="Path 13180" d="M901.282,726.742h0a12.364,12.364,0,0,1-.17-17.483l25.229-25.722a12.363,12.363,0,0,1,17.483-.17h0a12.363,12.363,0,0,1,.169,17.483l-25.228,25.723a12.363,12.363,0,0,1-17.483.17Z" transform="translate(21488.279 783.219)" fill="#92c6df"/>
    <path id="Path_13181" data-name="Path 13181" d="M964.659,674.513a10.832,10.832,0,1,1-15.021-3.012,10.832,10.832,0,0,1,15.021,3.012Z" transform="translate(21475.107 786.049)" fill="#e3d09a"/>
    <g id="Group_4545" data-name="Group 4545" transform="translate(22383.135 1482.968) rotate(137)">
      <path id="Path_11293" data-name="Path 11293" d="M9.465,13.793q2.786,2.9,5.577,5.8,1.273-5.228,2.544-10.451l4.74,6.359q3.952-7.749,7.9-15.5Q32.265,8.458,34.3,16.914q2.441-4.372,4.883-8.744.942,7.371,1.886,14.741,4.648-6.734,9.3-13.467,1.084,5.831,2.166,11.664l3.343-4.136a34.728,34.728,0,0,0,3.546,15.9c4.47,8.987,12.906,17.787,22.664,20.14-13.055.289-26.23.569-39.045-1.938S17.628,43.014,8.9,33.3A45.385,45.385,0,0,1,0,18.238q4.293,2.908,8.585,5.819.441-5.13.88-10.264Z" transform="translate(2.721 73.187)" fill="#f4eabb"/>
      <path id="Path_11294" data-name="Path 11294" d="M10.25,13.144A27.592,27.592,0,0,1,3.844,16.87C4.752,12.449,3.572,7.51,0,4.829,1.556,3.275,4.853,1.555,6.407,0A38.648,38.648,0,0,1,17.561,4.379a27.788,27.788,0,0,1-7.311,8.765Z" transform="translate(41.164 0)" fill="#a32413"/>
      <path id="Path_11295" data-name="Path 11295" d="M61.412,72.523A34.452,34.452,0,0,0,58.6,85.78l-3.343,4.136q-1.084-5.834-2.166-11.664-4.647,6.734-9.3,13.467-.944-7.369-1.886-14.741l-4.883,8.744L32.946,68.809q-3.949,7.749-7.9,15.5l-4.739-6.359Q19.034,83.171,17.763,88.4q-2.79-2.9-5.577-5.8-.441,5.133-.88,10.264-4.291-2.91-8.585-5.819A45.257,45.257,0,0,1,20.478,33.714c4.351-2.86,9.162-4.956,13.559-7.747s8.5-6.47,10.362-11.33a13.79,13.79,0,0,0,.609-2.147,27.592,27.592,0,0,0,6.407-3.726A27.787,27.787,0,0,0,58.725,0,39.715,39.715,0,0,1,74.5,16.849a39.81,39.81,0,0,1-.071,34.29c-3.669,7.507-9.677,13.725-13.017,21.384Z" transform="translate(0 4.378)" fill="#ed2e13"/>
    </g>
    <path id="Path_13182" data-name="Path 13182" d="M948.035,678.949h0a2.823,2.823,0,0,1-3.437-2.029l-.961-3.728a2.823,2.823,0,0,1,2.029-3.438h0a2.823,2.823,0,0,1,3.438,2.029l.96,3.727a2.823,2.823,0,0,1-2.029,3.438Z" transform="translate(21475.457 786.054)" fill="#e3d09a"/>
    <path id="Path_13183" data-name="Path 13183" d="M961.167,663.192l-3.838,9.717a2.931,2.931,0,0,1-3.8,1.649h0a2.931,2.931,0,0,1-1.649-3.8l3.839-9.717a2.93,2.93,0,0,1,3.8-1.648h0a2.93,2.93,0,0,1,1.648,3.8Z" transform="translate(21473.193 788.977)" fill="#e3d09a"/>
    <path id="Path_13184" data-name="Path 13184" d="M970.278,665.93l-4.635,9.363a2.932,2.932,0,0,1-3.926,1.327h0a2.931,2.931,0,0,1-1.326-3.927l4.635-9.363A2.931,2.931,0,0,1,968.951,662h0a2.931,2.931,0,0,1,1.327,3.926Z" transform="translate(21470.848 788.276)" fill="#e3d09a"/>
    <path id="Path_13185" data-name="Path 13185" d="M976.671,672.961l-6.473,8.2a2.93,2.93,0,0,1-4.115.485h0a2.929,2.929,0,0,1-.484-4.115l6.473-8.2a2.93,2.93,0,0,1,4.115-.485h0a2.929,2.929,0,0,1,.484,4.115Z" transform="translate(21469.486 786.458)" fill="#e3d09a"/>
    <path id="Path_13208" data-name="Path 13208" d="M879.953,725.177l-37.735,1.063A11.4,11.4,0,0,1,831.275,714.4l2.384-63.149a7.847,7.847,0,0,1,5.46-7.169l28.132-8.958L889.739,645.9a7.848,7.848,0,0,1,4.449,7.386l-2.4,60.946a11.4,11.4,0,0,1-11.838,10.943Z" transform="translate(21506.773 795.687)" fill="#92c6df"/>
    <path id="Path_13209" data-name="Path 13209" d="M913.018,660.312c.13,6.585.054,13.162-.054,19.738-.087,6.576-.321,13.146-.555,19.716-.28,6.569-.563,13.138-.992,19.7a17.57,17.57,0,0,1-.779,5.025,11.443,11.443,0,0,1-11.855,7.71,11.447,11.447,0,0,0,8.485-3.982,10.693,10.693,0,0,0,2.237-4.093,16.319,16.319,0,0,0,.464-4.717c.087-6.577.321-13.147.558-19.718.282-6.568.565-13.136,1-19.7.41-6.563.849-13.126,1.5-19.68Z" transform="translate(21487.943 788.663)" fill="#6dacc7"/>
    <g id="Group_4544" data-name="Group 4544" transform="matrix(0.978, 0.208, -0.208, 0.978, 22373.104, 1372.938)">
      <path id="Path_13142" data-name="Path 13142" d="M16.333,0A66.544,66.544,0,0,0,0,27.723a25.88,25.88,0,0,1,10.275-9.109c2.5-1.285,5.183-2.147,7.667-3.457a12.665,12.665,0,0,0,5.98-5.8A27.721,27.721,0,0,1,16.333,0Z" transform="translate(59.864 31.887) rotate(173)" fill="#a32413"/>
      <path id="Path_13143" data-name="Path 13143" d="M0,18.821a68.171,68.171,0,0,1,13.422-14.9C13.058,2.588,12.634,1.331,12.268,0A112.945,112.945,0,0,0,0,18.821Z" transform="translate(55.902 30.998) rotate(173)" fill="#e3d09a"/>
      <path id="Path_13144" data-name="Path 13144" d="M50.25,3.775c-2.282,5.211-2.629,7.706-5.74,12.468a27.453,27.453,0,0,1-2.224,3.222,21.369,21.369,0,0,1-3.4,2.611L31.379,27.6c-1.6,1.177-3.186,2.657-4.842,3.706a10.017,10.017,0,0,1-5.661.965,13.527,13.527,0,0,1-7.12-2.909c-1.258-.971-2.357-2.127-3.575-3.119a6.835,6.835,0,0,1-2.149-3.486,15.642,15.642,0,0,1-.059-7c.364-2.049,1.055-3.216-.3-4.9A98.523,98.523,0,0,1,0,.134L.182,0,18.53,7.137c3.707,1.442,7.477,2.9,11.437,3.195A22.691,22.691,0,0,0,47.286,3.6C50.561.35,47.19,6.69,48.55,2.222c.043.259,1.877-.858,1.9-.592.237,2.947.226.222-.958,2.926Z" transform="translate(54.13 50.286) rotate(173)" fill="#ed2e13"/>
      <path id="Path_13145" data-name="Path 13145" d="M47.1,6.88a22.688,22.688,0,0,1-17.32,6.733c-3.959-.295-7.73-1.751-11.436-3.194L0,3.281,2.877,1.166A6.031,6.031,0,0,1,4.17.44,5.924,5.924,0,0,1,6.3,0,5.849,5.849,0,0,1,8.45.369L24.712,6.424C25.047,2.474,50.38,3.632,47.1,6.88Z" transform="translate(54.347 53.565) rotate(173)" fill="#f4eabb" stroke="#ed2e13" stroke-width="1"/>
      <path id="Path_13146" data-name="Path 13146" d="M.676,33.446a48.3,48.3,0,0,1,5.719-32A2.585,2.585,0,0,1,9.734.413a10.479,10.479,0,0,0,7.33.327A9.929,9.929,0,0,1,19.675,0a1.975,1.975,0,0,1,2.092,1.377,2.929,2.929,0,0,1-.5,1.849Q19.75,6.1,18.231,8.966a31.058,31.058,0,0,1-4.19,6.527c-1.774,1.949-4.028,3.413-5.658,5.491C5.4,24.786,3.963,29.918.676,33.446Z" transform="translate(38.274 33.196) rotate(173)" fill="#ed2e13"/>
      <path id="Path_13147" data-name="Path 13147" d="M12.829,1.968A4.12,4.12,0,0,1,12.59,5.2a13.416,13.416,0,0,1-1.885,2.715A76.8,76.8,0,0,0,.009,25.446,50.021,50.021,0,0,1,3.558,5.98C4.575,3.438,6.123.709,8.727.1a3.566,3.566,0,0,1,4.1,1.87Z" transform="translate(35.73 31.779) rotate(173)" fill="#e3d09a"/>
      <path id="Path_13148" data-name="Path 13148" d="M4.535,4.333a3.228,3.228,0,0,1-4.077-2.2L0,.591,1.363.153a3.23,3.23,0,0,1,4.077,2.2L5.9,3.9l-1.362.437Z" transform="translate(39.54 39.305) rotate(173)" fill="#2e1416"/>
      <g id="Group_4540" data-name="Group 4540" transform="translate(13.562 24.706) rotate(8)">
        <path id="Path_13274" data-name="Path 13274" d="M13.686,6.149h0L8.728,6.125a7.986,7.986,0,0,1-5.413-2.16L.2,1.076A.629.629,0,0,1,.154.2.588.588,0,0,1,1,.161L4.117,3.05A6.793,6.793,0,0,0,8.723,4.888l4.958.024a.616.616,0,0,1,.6.621.6.6,0,0,1-.6.616Z" transform="translate(12.586 15.707)" fill="#201028"/>
        <path id="Path_13275" data-name="Path 13275" d="M3.219,2.484h0l-2.01-.01A1.232,1.232,0,0,1,0,1.229,1.21,1.21,0,0,1,1.2,0h0L3.21.011A1.231,1.231,0,0,1,4.417,1.254a1.209,1.209,0,0,1-1.2,1.23Z" transform="translate(23.055 19.99)" fill="#a69596"/>
        <path id="Path_13276" data-name="Path 13276" d="M20.153,10.807a10.1,10.1,0,0,1-10.429,9.9A10.347,10.347,0,0,1,.006,9.913,10.1,10.1,0,0,1,10.435.01a10.347,10.347,0,0,1,9.718,10.8Z" transform="translate(0 0)" fill="#3e5aa7"/>
        <path id="Path_13277" data-name="Path 13277" d="M15.73,9.191c-.167,4.879-3.823,8.678-8.165,8.486S-.161,13.372.006,8.493,3.83-.186,8.172.007s7.726,4.3,7.558,9.184Z" transform="translate(0.738 1.452)" fill="#91a6cf"/>
        <path id="Path_13278" data-name="Path 13278" d="M5.407,3.7C5.34,5.677,4.074,7.227,2.582,7.161S-.065,5.438,0,3.461,1.335-.064,2.828,0,5.475,1.725,5.407,3.7Z" transform="translate(4.427 6.647)" fill="#e2ebed"/>
      </g>
    </g>
    <path id="Path_13210" data-name="Path 13210" d="M887.613,645.513,867.247,644.2l.781-12.106a2.73,2.73,0,0,1,2.9-2.548l14.916.962a2.73,2.73,0,0,1,2.549,2.9l-.781,12.105Z" transform="translate(21496.738 797.245)" fill="#92c6df"/>
    <path id="Path_13211" data-name="Path 13211" d="M808.4,712.269h0a12.362,12.362,0,0,1-6.676-16.159l13.818-33.274A12.363,12.363,0,0,1,831.7,656.16h0a12.363,12.363,0,0,1,6.676,16.159L824.56,705.593a12.363,12.363,0,0,1-16.159,6.676Z" transform="translate(21515.277 790.085)" fill="#92c6df"/>
    <path id="Path_13212" data-name="Path 13212" d="M840.9,656.527a12.158,12.158,0,0,1,5.711,4.012,12.771,12.771,0,0,1,2.6,6.677,14,14,0,0,1-1.341,7.083l-2.61,6.42c-1.792,4.259-3.588,8.517-5.516,12.717l-2.9,6.3c-1.031,2.073-2,4.171-3.085,6.222.689-2.214,1.491-4.384,2.232-6.576l2.416-6.5c1.614-4.332,3.363-8.608,5.116-12.883l2.706-6.38a18.108,18.108,0,0,0,1.17-3.105,12.056,12.056,0,0,0,.374-3.214,12.559,12.559,0,0,0-6.87-10.771Z" transform="translate(21506.078 789.718)" fill="#6dacc7"/>
    <path id="Path_13213" data-name="Path 13213" d="M881.416,696.6a1.465,1.465,0,0,0-1.554,1.366l-.183,2.838a1.467,1.467,0,0,0,1.366,1.555l3.475.224.372-5.757-3.476-.224Zm5.742,8.984-6.3-.406a4.294,4.294,0,0,1-4-4.556l.183-2.837a4.293,4.293,0,0,1,4.556-4l6.294.407-.735,11.4Z" transform="translate(21494.061 779.33)" fill="#86294e"/>
    <path id="Path_13214" data-name="Path 13214" d="M895.358,712.946l-5.445-.351a6,6,0,0,1-5.6-6.373l1.129-17.5c.126-1.953,17.544-.829,17.418,1.123l-1.129,17.5a6,6,0,0,1-6.373,5.6Z" transform="translate(21491.982 781.024)" fill="#d05e79"/>
    <path id="Path_13215" data-name="Path 13215" d="M902.108,690.624c-.045.7-3.28,1.067-7.223.813s-7.1-1.03-7.059-1.733,3.28-1.067,7.223-.813,7.1,1.031,7.059,1.734Z" transform="translate(21491 780.715)" fill="#86294e"/>
    <path id="Path_13216" data-name="Path 13216" d="M801.849,714.216h0a12.362,12.362,0,0,1,12.557-12.166l36.025.568A12.363,12.363,0,0,1,862.6,715.174h0a12.364,12.364,0,0,1-12.557,12.166l-36.024-.569a12.362,12.362,0,0,1-12.166-12.556Z" transform="translate(21514.977 777.023)" fill="#92c6df"/>
    <path id="Path_13217" data-name="Path 13217" d="M819.263,701.833c4.626-.316,9.248-.425,13.87-.5,4.622-.1,9.242-.05,13.863,0l6.928.159a14.029,14.029,0,0,1,7.033,1.589,12.8,12.8,0,0,1,5.092,5.044,12.162,12.162,0,0,1,1.4,6.838,12.563,12.563,0,0,0-7.147-10.588,12.084,12.084,0,0,0-3.1-.937,18.062,18.062,0,0,0-3.314-.162l-6.931-.06c-4.62-.1-9.239-.195-13.855-.439-4.618-.224-9.235-.478-13.848-.94Z" transform="translate(21510.121 777.239)" fill="#6dacc7"/>
    <path id="Path_13218" data-name="Path 13218" d="M894.973,711.31a10.832,10.832,0,1,1-11.789-9.782,10.833,10.833,0,0,1,11.789,9.782Z" transform="translate(21495.035 777.181)" fill="#f4eabb"/>
    <path id="Path_13219" data-name="Path 13219" d="M879.934,706.065h0a2.59,2.59,0,0,1-1.6-3.3l1.154-3.338a2.59,2.59,0,0,1,3.3-1.6h0a2.588,2.588,0,0,1,1.6,3.295l-1.155,3.338a2.591,2.591,0,0,1-3.3,1.6Z" transform="translate(21493.686 778.238)" fill="#f4eabb"/>
    <path id="Path_13220" data-name="Path 13220" d="M904.509,709.18l-9.614.895a2.709,2.709,0,0,1-2.947-2.446h0a2.709,2.709,0,0,1,2.446-2.947l9.613-.894a2.709,2.709,0,0,1,2.948,2.446h0a2.708,2.708,0,0,1-2.446,2.946Z" transform="translate(21489.854 776.541)" fill="#f4eabb"/>
    <path id="Path_13221" data-name="Path 13221" d="M901.842,721.2l-9.635-.622a2.707,2.707,0,0,1-2.528-2.876h0a2.707,2.707,0,0,1,2.876-2.528l9.635.622a2.707,2.707,0,0,1,2.528,2.877h0a2.709,2.709,0,0,1-2.877,2.528Z" transform="translate(21490.484 773.365)" fill="#f4eabb"/>
    <path id="Path_13222" data-name="Path 13222" d="M1041.98,672.931a1.13,1.13,0,0,1-.8-1.928l10.786-10.788a1.129,1.129,0,1,1,1.6,1.6L1042.778,672.6a1.123,1.123,0,0,1-.8.331Z" transform="translate(21448.322 788.782)" fill="#3e5aa7"/>
    <path id="Path_13223" data-name="Path 13223" d="M1031.329,662.023a1.13,1.13,0,0,1-1.131-1.13V645.639a1.13,1.13,0,0,1,2.26,0v15.254a1.13,1.13,0,0,1-1.129,1.13Z" transform="translate(21451.293 793.07)" fill="#3e5aa7"/>
    <path id="Path_13224" data-name="Path 13224" d="M1066.413,687.754h-15.256a1.13,1.13,0,1,1,0-2.259h15.256a1.13,1.13,0,0,1,0,2.259Z" transform="translate(21445.762 781.639)" fill="#3e5aa7"/>
    <path id="Path_13225" data-name="Path 13225" d="M883.026,752.609h93.339c2.6,0,3.406-2.11,3.406-4.715H878.31a4.715,4.715,0,0,0,4.716,4.715Z" transform="translate(21493.652 764.236)" fill="#3e5aa7"/>
    <path id="Path_13226" data-name="Path 13226" d="M876.43,747.895h33.086c0,2.6-2.4,4.715-5.354,4.715H876.288c-3.05-.044-2.909-4.714.141-4.714Z" transform="translate(21494.834 764.236)" fill="#3e5aa7"/>
    <path id="Path_13227" data-name="Path 13227" d="M924.484,731.6h67.008a4.143,4.143,0,0,0,4.069-3.37l9.032-38.755a4.143,4.143,0,0,0-4.071-4.917H933.517a4.144,4.144,0,0,0-4.072,3.371l-9.031,38.754a4.145,4.145,0,0,0,4.071,4.917Z" transform="translate(21481.932 781.9)" fill="#91a6cf"/>
    <path id="Path_13228" data-name="Path 13228" d="M929.445,688.234a2.246,2.246,0,1,1,3.305,1.546l-9.03,38.755a2.245,2.245,0,1,1-3.307-1.547l9.031-38.754Z" transform="translate(21481.932 781.597)" fill="#3e5aa7"/>
    <path id="Path_13229" data-name="Path 13229" d="M985.58,720.877H974.591a4.081,4.081,0,0,1-4.082-4.081h0a4.081,4.081,0,0,1,4.082-4.081H985.58a4.081,4.081,0,0,1,4.082,4.081h0a4.081,4.081,0,0,1-4.082,4.081Z" transform="translate(21467.939 774.048)" fill="#fff"/>
    <path id="Path_13230" data-name="Path 13230" d="M889.464,748.785h-3.3a1.177,1.177,0,0,1-1.178-1.178h0a1.178,1.178,0,0,1,1.178-1.177h3.3a1.177,1.177,0,0,1,1.178,1.177h0a1.177,1.177,0,0,1-1.178,1.178Z" transform="translate(21491.791 764.644)" fill="#6dacc7"/>
    <path id="Path_13231" data-name="Path 13231" d="M898.39,748.785h-3.3a1.177,1.177,0,0,1-1.178-1.178h0a1.177,1.177,0,0,1,1.178-1.177h3.3a1.178,1.178,0,0,1,1.178,1.177h0a1.177,1.177,0,0,1-1.178,1.178Z" transform="translate(21489.301 764.644)" fill="#6dacc7"/>
    <path id="Path_13232" data-name="Path 13232" d="M907.317,748.785h-3.3a1.177,1.177,0,0,1-1.178-1.178h0a1.177,1.177,0,0,1,1.178-1.177h3.3a1.177,1.177,0,0,1,1.178,1.177h0a1.177,1.177,0,0,1-1.178,1.178Z" transform="translate(21486.811 764.644)" fill="#6dacc7"/>
    <path id="Path_13233" data-name="Path 13233" d="M916.243,748.785h-3.3a1.176,1.176,0,0,1-1.177-1.178h0a1.177,1.177,0,0,1,1.177-1.177h3.3a1.177,1.177,0,0,1,1.177,1.177h0a1.176,1.176,0,0,1-1.177,1.178Z" transform="translate(21484.322 764.644)" fill="#6dacc7"/>
    <path id="Path_13234" data-name="Path 13234" d="M978.147,759.729H696.195a2.825,2.825,0,0,1-2.826-2.825h0a2.826,2.826,0,0,1,2.826-2.826H978.147a2.826,2.826,0,0,1,2.825,2.826h0a2.825,2.825,0,0,1-2.825,2.825Z" transform="translate(21545.234 762.511)" fill="#1c2b67"/>
    <path id="Path_13235" data-name="Path 13235" d="M753.56,722.472s-2.075-15.591-5.832-19.424" transform="translate(21530.072 776.744)" fill="none" stroke="#1c2b67" stroke-linecap="round" stroke-miterlimit="10" stroke-width="0.827"/>
    <path id="Path_13236" data-name="Path 13236" d="M746.756,689.512c1,3.322.8,6.323-.457,6.7s-3.091-2.006-4.094-5.328c-.01-.034-.02-.067-.03-.1a2.378,2.378,0,0,1,4.55-1.374c.011.033.021.066.03.1Z" transform="translate(21531.652 781.003)" fill="#f6d2d4"/>
    <path id="Path_13237" data-name="Path 13237" d="M754.23,698.667c-3.323,1-6.325.8-6.7-.457s2.006-3.09,5.329-4.094l.1-.03a2.378,2.378,0,0,1,1.375,4.55l-.1.03Z" transform="translate(21530.141 779.273)" fill="#f6d2d4"/>
    <path id="Path_13238" data-name="Path 13238" d="M739.87,703.236c3.324-1,5.709-2.836,5.329-4.094s-3.381-1.462-6.7-.457l-.1.03a2.378,2.378,0,0,0,1.375,4.55l.1-.03Z" transform="translate(21533.133 778.138)" fill="#f6d2d4"/>
    <path id="Path_13239" data-name="Path 13239" d="M747.013,707.878c.934-3.342.666-6.339-.6-6.693s-3.047,2.07-3.981,5.413c-.009.034-.018.067-.027.1a2.378,2.378,0,0,0,4.578,1.279c.01-.033.019-.066.029-.1Z" transform="translate(21531.582 777.273)" fill="#f6d2d4"/>
    <path id="Path_13240" data-name="Path 13240" d="M751.943,706.707c-2.628-2.266-4.065-4.91-3.207-5.9s3.683.037,6.313,2.3l.078.069a2.377,2.377,0,0,1-3.1,3.6l-.079-.067Z" transform="translate(21529.861 777.476)" fill="#f6d2d4"/>
    <path id="Path_13241" data-name="Path 13241" d="M748.876,699.637a1.625,1.625,0,1,1-2.026-1.086,1.626,1.626,0,0,1,2.026,1.086Z" transform="translate(21530.639 778.017)" fill="#d05e79"/>
    <path id="Path_13242" data-name="Path 13242" d="M743.394,714.847c4.317,3.4,6.774,7.482,5.488,9.115s-5.829.2-10.147-3.2-5.486-9.115-5.486-9.115,5.829-.2,10.145,3.2Z" transform="translate(21534.111 774.346)" fill="#3e5aa7"/>
    <path id="Path_13243" data-name="Path 13243" d="M763.823,719.022c-4.557,4.278-9.562,6.35-11.181,4.627s.763-6.59,5.32-10.87,11.181-4.627,11.181-4.627-.763,6.59-5.32,10.87Z" transform="translate(21528.844 775.32)" fill="#3e5aa7"/>
    <path id="Path_13244" data-name="Path 13244" d="M756.922,748.13H742.013l-2.61-18.757h20.128l-2.609,18.757Z" transform="translate(21532.393 769.402)" fill="#1c2b67"/>
    <path id="Path_13245" data-name="Path 13245" d="M759.6,733.346H737.912a1.06,1.06,0,0,1-1.059-1.059v-4.855a1.059,1.059,0,0,1,1.059-1.059H759.6a1.059,1.059,0,0,1,1.059,1.059v4.855a1.059,1.059,0,0,1-1.059,1.059Z" transform="translate(21533.105 770.239)" fill="#1c2b67"/>
    <path id="Path_13246" data-name="Path 13246" d="M816.44,528.914l7.393,7.929,56.356-23.506L816.44,528.914Z" transform="translate(21510.91 829.653)" fill="#3e5aa7"/>
    <path id="Path_13247" data-name="Path 13247" d="M813.238,498.655l-5.566,8.4,3.764,8.229-8.443,1.436L795.532,533.1l80.634-24.4-62.929-10.041Z" transform="translate(21516.74 833.748)" fill="#91a6cf"/>
    <path id="Path_13248" data-name="Path 13248" d="M816.13,518.529l-3.764-8.229,43.676,2.042-39.912,6.187Z" transform="translate(21512.045 830.5)" fill="#3e5aa7"/>
    <path id="Path_13250" data-name="Path 13250" d="M642.883,442.9a1.131,1.131,0,0,1-.32-2.215,42.614,42.614,0,0,1,8.885-1.607l.34-.011a1.2,1.2,0,0,1,1.152,1.108,1.129,1.129,0,0,1-1.108,1.152l-.247.009a40.288,40.288,0,0,0-8.384,1.517,1.159,1.159,0,0,1-.32.048Zm26.186,2.882a1.124,1.124,0,0,1-.618-.185,25.522,25.522,0,0,0-7.922-3.429,1.131,1.131,0,0,1,.541-2.2,27.84,27.84,0,0,1,8.621,3.735,1.13,1.13,0,0,1-.622,2.075Zm-41.257,6.72a1.118,1.118,0,0,1-.684-.23,1.131,1.131,0,0,1-.216-1.584,25.616,25.616,0,0,1,7.078-6.253,1.131,1.131,0,1,1,1.181,1.928,23.337,23.337,0,0,0-6.46,5.694,1.127,1.127,0,0,1-.9.445Zm52.689,7.085a1.132,1.132,0,0,1-1.019-.643,38.37,38.37,0,0,0-4.637-7.48,1.13,1.13,0,1,1,1.762-1.416,40.681,40.681,0,0,1,4.914,7.918,1.133,1.133,0,0,1-1.02,1.621ZM625.007,469.72a1.13,1.13,0,0,1-1.09-.829q-.21-.761-.394-1.537a21.838,21.838,0,0,1-.6-5.009,19.171,19.171,0,0,1,.217-2.9,1.129,1.129,0,1,1,2.233.338,17.222,17.222,0,0,0-.191,2.561,19.568,19.568,0,0,0,.545,4.488c.115.49.239.976.371,1.454a1.128,1.128,0,0,1-.787,1.391,1.149,1.149,0,0,1-.3.042Zm60.733,7.221a1.131,1.131,0,0,1-1.113-.938,77.032,77.032,0,0,0-2-8.735,1.129,1.129,0,1,1,2.167-.637,79.424,79.424,0,0,1,2.059,8.989,1.134,1.134,0,0,1-.923,1.307,1.184,1.184,0,0,1-.194.014Zm-52.067,8.54a1.126,1.126,0,0,1-.835-.368,39.333,39.333,0,0,1-5.433-7.578,1.131,1.131,0,0,1,1.984-1.089,36.991,36.991,0,0,0,5.119,7.143,1.129,1.129,0,0,1-.835,1.891Zm53.523,9.585a1.13,1.13,0,0,1-1.13-1.129v-.4c0-2.85-.114-5.745-.34-8.608a1.131,1.131,0,1,1,2.255-.177c.228,2.92.344,5.876.344,8.784v.4a1.13,1.13,0,0,1-1.129,1.129Zm-38.91,1.01a1.113,1.113,0,0,1-.493-.114,54.927,54.927,0,0,1-7.978-4.7,1.13,1.13,0,1,1,1.313-1.84,52.812,52.812,0,0,0,7.651,4.507,1.131,1.131,0,0,1-.493,2.149Zm17.168,5.806a1.114,1.114,0,0,1-.248-.027c-2.186-.491-4.316-1.043-6.331-1.643q-1.285-.384-2.53-.8a1.13,1.13,0,1,1,.711-2.145q1.212.4,2.463.774c1.966.585,4.045,1.124,6.179,1.6a1.131,1.131,0,0,1-.244,2.235Zm63.28,1.16a1.13,1.13,0,0,1-.129-2.252q4.406-.516,8.978-1.167a1.13,1.13,0,0,1,.32,2.237q-4.607.658-9.037,1.174a1.031,1.031,0,0,1-.133.008Zm-45.316,1.444h-.09c-3.145-.245-6.207-.58-9.1-.994a1.129,1.129,0,0,1-.958-1.279,1.147,1.147,0,0,1,1.279-.958c2.844.407,5.858.736,8.955.975a1.13,1.13,0,0,1-.087,2.257Zm27.222.143a1.129,1.129,0,0,1-.061-2.257c2.923-.166,5.959-.384,9.024-.655a1.13,1.13,0,1,1,.2,2.251c-3.089.273-6.147.5-9.1.659-.02,0-.042,0-.065,0Zm-13.089.379q-2.589,0-5.094-.063a1.13,1.13,0,0,1,.029-2.259h.03q4.376.11,9.029.024a1.071,1.071,0,0,1,1.152,1.108,1.128,1.128,0,0,1-1.108,1.152q-2.045.039-4.038.039Z" transform="translate(21564.881 850.368)" fill="#3e5aa7"/>
    <path id="Path_13251" data-name="Path 13251" d="M1022.463,455.051h60.417a13.675,13.675,0,0,1,13.674,13.675v31.162a13.674,13.674,0,0,1-13.674,13.674h-39.508l-14.21,12.539V513.562h-6.7a13.674,13.674,0,0,1-13.675-13.674V468.726a13.675,13.675,0,0,1,13.675-13.675Z" transform="translate(21457.264 845.909)" fill="#3e5aa7"/>
    <path id="Path_13252" data-name="Path 13252" d="M1039.276,480.469h42.84a1.714,1.714,0,0,0,0-3.428h-42.84a1.714,1.714,0,0,0,0,3.428Z" transform="translate(21449.238 839.776)" fill="#91a6cf"/>
    <path id="Path_13253" data-name="Path 13253" d="M1039.276,496.311h42.84a1.714,1.714,0,0,0,0-3.429h-42.84a1.714,1.714,0,0,0,0,3.429Z" transform="translate(21449.238 835.358)" fill="#91a6cf"/>
    <path id="Path_13254" data-name="Path 13254" d="M1089.972,512.153h6.283a1.714,1.714,0,0,0,0-3.429h-6.283a1.714,1.714,0,0,0,0,3.429Z" transform="translate(21435.1 830.94)" fill="#91a6cf"/>
    <path id="Path_13255" data-name="Path 13255" d="M1070.169,512.153h6.283a1.714,1.714,0,0,0,0-3.429h-6.283a1.714,1.714,0,0,0,0,3.429Z" transform="translate(21440.623 830.94)" fill="#91a6cf"/>
    <path id="Path_13256" data-name="Path 13256" d="M1039.276,512.153h14.281a1.714,1.714,0,0,0,0-3.429h-14.281a1.714,1.714,0,0,0,0,3.429Z" transform="translate(21449.238 830.94)" fill="#91a6cf"/>
    <path id="Path_13258" data-name="Path 13258" d="M988.445,560.17a5.475,5.475,0,1,1-5.475-5.475,5.476,5.476,0,0,1,5.475,5.475Z" transform="translate(21465.99 818.119)" fill="#3e5aa7"/>
    <path id="Path_13259" data-name="Path 13259" d="M988.445,560.17a5.475,5.475,0,1,1-5.475-5.475,5.476,5.476,0,0,1,5.475,5.475Z" transform="translate(21465.99 818.119)" fill="none" stroke="#3e5aa7" stroke-linecap="round" stroke-linejoin="round" stroke-width="2.761"/>
    <path id="Path_13260" data-name="Path 13260" d="M993.023,584.62H967.14a8.3,8.3,0,0,1,8.3-8.3h9.291a8.3,8.3,0,0,1,8.3,8.3Z" transform="translate(21468.879 812.087)" fill="#3e5aa7"/>
    <path id="Path_13261" data-name="Path 13261" d="M993.023,584.62H967.14a8.3,8.3,0,0,1,8.3-8.3h9.291a8.3,8.3,0,0,1,8.3,8.3Z" transform="translate(21468.879 812.087)" fill="none" stroke="#3e5aa7" stroke-linecap="round" stroke-linejoin="round" stroke-width="2.761"/>
    <path id="Path_13262" data-name="Path 13262" d="M921.894,423.661a1.131,1.131,0,0,1-.491-2.149,22.164,22.164,0,0,1,7.605-2.114,1.145,1.145,0,0,1,1.231,1.021,1.131,1.131,0,0,1-1.021,1.23,19.97,19.97,0,0,0-6.833,1.9,1.115,1.115,0,0,1-.491.114Zm21.466,1.8a1.123,1.123,0,0,1-.653-.208,19.89,19.89,0,0,0-6.416-3.018,1.13,1.13,0,1,1,.581-2.185,22.129,22.129,0,0,1,7.145,3.359,1.13,1.13,0,0,1-.656,2.052Zm-31.7,8.825a1.131,1.131,0,0,1-1.036-1.584,22.162,22.162,0,0,1,4.389-6.561,1.129,1.129,0,1,1,1.627,1.567,19.975,19.975,0,0,0-3.944,5.9,1.131,1.131,0,0,1-1.036.679Zm40.021,3.363a1.13,1.13,0,0,1-1.1-.859,19.919,19.919,0,0,0-2.9-6.473,1.13,1.13,0,0,1,1.866-1.277,22.156,22.156,0,0,1,3.231,7.2,1.129,1.129,0,0,1-.825,1.369,1.117,1.117,0,0,1-.272.035Zm-40.845,11.37a1.13,1.13,0,0,1-1.08-.8,22.358,22.358,0,0,1-.988-6.586c0-.421.011-.837.035-1.251A1.156,1.156,0,0,1,910,439.32a1.129,1.129,0,0,1,1.063,1.193c-.02.369-.032.745-.032,1.12a20.2,20.2,0,0,0,.889,5.922,1.13,1.13,0,0,1-.747,1.413,1.092,1.092,0,0,1-.333.052Zm40.148,1.122a1.165,1.165,0,0,1-.394-.071,1.131,1.131,0,0,1-.666-1.454,20.012,20.012,0,0,0,1.249-6.984,1.13,1.13,0,0,1,2.259,0,22.24,22.24,0,0,1-1.39,7.771,1.133,1.133,0,0,1-1.059.738Zm-31.166,10.576a1.117,1.117,0,0,1-.6-.173,22.394,22.394,0,0,1-5.836-5.313,1.131,1.131,0,0,1,1.792-1.379,20.182,20.182,0,0,0,5.247,4.78,1.129,1.129,0,0,1-.6,2.086Zm21.543.607a1.132,1.132,0,0,1-.55-2.121,20.081,20.081,0,0,0,5.506-4.477,1.129,1.129,0,1,1,1.71,1.475,22.388,22.388,0,0,1-6.12,4.981,1.138,1.138,0,0,1-.547.142Zm-10.26,2.64a22.644,22.644,0,0,1-4.557-.464,1.131,1.131,0,0,1-.88-1.335,1.149,1.149,0,0,1,1.336-.88,20.433,20.433,0,0,0,7.1.2,1.131,1.131,0,1,1,.334,2.238,22.794,22.794,0,0,1-3.329.244Z" transform="translate(21485.158 855.854)" fill="#3e5aa7"/>
    <path id="Path_13263" data-name="Path 13263" d="M934.008,435.347c-8.182,0-14.817,4.385-14.817,9.8v.027c.007,1.412,1.121,2.38,2.162,1.935l3.89-1.659a2.338,2.338,0,0,0,.97-2.91l-.478-1.3a58.683,58.683,0,0,0,16.493,0l-.483,1.674a2.359,2.359,0,0,0,.9,2.682l3.846,2.1c.935.511,2.027-.175,2.242-1.452a6.568,6.568,0,0,0,.092-1.093c0-5.41-6.633-9.8-14.816-9.8Z" transform="translate(21482.252 851.405)" fill="#3e5aa7"/>
    <path id="Path_13264" data-name="Path 13264" d="M946.028,460.275H925.493l3.043-9.534a4.312,4.312,0,0,1,4.107-3h6.235a4.313,4.313,0,0,1,4.107,3l3.042,9.534Z" transform="translate(21480.494 847.948)" fill="#91a6cf"/>
    <path id="Path_13265" data-name="Path 13265" d="M1105.44,584.7a1.13,1.13,0,0,1-.492-2.148,22.146,22.146,0,0,1,7.608-2.112,1.13,1.13,0,1,1,.209,2.251,19.93,19.93,0,0,0-6.835,1.9,1.1,1.1,0,0,1-.49.114Zm21.465,1.809a1.119,1.119,0,0,1-.653-.208,19.823,19.823,0,0,0-6.417-3.019,1.131,1.131,0,0,1,.582-2.186,22.206,22.206,0,0,1,7.146,3.362,1.13,1.13,0,0,1-.657,2.051Zm-31.7,8.82a1.132,1.132,0,0,1-1.036-1.584,22.28,22.28,0,0,1,4.392-6.56,1.129,1.129,0,0,1,1.626,1.568,20.051,20.051,0,0,0-3.946,5.9,1.132,1.132,0,0,1-1.036.679Zm40.023,3.365a1.13,1.13,0,0,1-1.1-.86,19.969,19.969,0,0,0-2.9-6.47,1.13,1.13,0,1,1,1.865-1.277,22.143,22.143,0,0,1,3.231,7.2,1.13,1.13,0,0,1-.825,1.369,1.085,1.085,0,0,1-.272.035Zm-40.85,11.365a1.131,1.131,0,0,1-1.08-.8,22.337,22.337,0,0,1-.986-6.584c0-.42.011-.835.035-1.249a1.184,1.184,0,0,1,1.19-1.066,1.129,1.129,0,0,1,1.064,1.191c-.02.373-.031.749-.031,1.124a20.041,20.041,0,0,0,.887,5.918,1.131,1.131,0,0,1-.746,1.413,1.1,1.1,0,0,1-.333.052Zm40.149,1.126a1.133,1.133,0,0,1-1.059-1.524,20.017,20.017,0,0,0,1.248-6.984,1.13,1.13,0,0,1,2.26,0,22.243,22.243,0,0,1-1.39,7.771,1.131,1.131,0,0,1-1.06.737Zm-31.164,10.575a1.123,1.123,0,0,1-.6-.173,22.435,22.435,0,0,1-5.834-5.313,1.131,1.131,0,1,1,1.792-1.38,20.139,20.139,0,0,0,5.245,4.78,1.13,1.13,0,0,1-.6,2.086Zm21.542.609a1.132,1.132,0,0,1-.551-2.12,20.143,20.143,0,0,0,5.507-4.479,1.129,1.129,0,1,1,1.71,1.475,22.377,22.377,0,0,1-6.121,4.981,1.128,1.128,0,0,1-.546.143Zm-10.259,2.638a22.488,22.488,0,0,1-4.562-.466,1.133,1.133,0,0,1-.878-1.337,1.146,1.146,0,0,1,1.338-.878,20.3,20.3,0,0,0,7.094.2,1.131,1.131,0,1,1,.335,2.237,22.892,22.892,0,0,1-3.326.247Z" transform="translate(21433.969 810.939)" fill="#3e5aa7"/>
    <path id="Path_13266" data-name="Path 13266" d="M1131.1,620.609h-26.285V605.7H1131.1v14.905Z" transform="translate(21430.482 803.893)" fill="#91a6cf"/>
    <path id="Path_13267" data-name="Path 13267" d="M1136.264,602.419V600.6a2.431,2.431,0,0,1,2.431-2.432h0a2.432,2.432,0,0,1,2.431,2.432v3.024h-4.862" transform="translate(21421.711 805.995)" fill="#3e5aa7"/>
    <path id="Path_13268" data-name="Path 13268" d="M1129.4,600.547V616.04h-17.92V600.547a2.431,2.431,0,0,1,2.431-2.431h17.718l-.492.1a2.431,2.431,0,0,0-1.736,2.328Z" transform="translate(21428.623 806.009)" fill="#e2ebed"/>
    <path id="Path_13269" data-name="Path 13269" d="M1113.024,601.614v4.079H1117v-4.079Z" transform="translate(21428.193 805.033)" fill="#3e5aa7"/>
    <path id="Path_13270" data-name="Path 13270" d="M1118.215,601.582h10.1m-10.1,1.374h10.1m-10.1,1.374h10.1M1118.31,605.7h10.1m-15.388,1.354h15.292m-15.292,1.374h15.292m-15.292,1.344h15.292m-15.292,1.374h7.432" transform="translate(21428.193 805.042)" fill="none" stroke="#3e5aa7" stroke-linecap="round" stroke-linejoin="round" stroke-width="0.658"/>
    <path id="Path_13271" data-name="Path 13271" d="M1124.638,620.609h-19.827V605.7l19.827,14.905Z" transform="translate(21430.482 803.893)" fill="#3e5aa7"/>
    <path id="Path_13272" data-name="Path 13272" d="M1113.766,620.609h19.827V605.7l-19.827,14.905Z" transform="translate(21427.986 803.893)" fill="#3e5aa7"/>
    <path id="Path_13273" data-name="Path 13273" d="M1131.1,623.774h-26.285l11.805-6.3a2.345,2.345,0,0,1,2.675,0l11.805,6.3Z" transform="translate(21430.482 800.728)" fill="#3e5aa7"/>
  </g>
</svg>
