<svg xmlns="http://www.w3.org/2000/svg" xmlns:xlink="http://www.w3.org/1999/xlink" width="1086.615" height="820.211" viewBox="0 0 1086.615 820.211">
  <defs>
    <clipPath id="clip-path">
      <path id="Path_11249" data-name="Path 11249" d="M1131.24,587.548l-8.879-4.47a22.641,22.641,0,0,0,5.215-4.517l3.664,8.987" transform="translate(-1122.361 -578.561)" fill="none"/>
    </clipPath>
  </defs>
  <g id="Group_766" data-name="Group 766" transform="translate(-14181.271 -11244.651)">
    <path id="Path_10962" data-name="Path 10962" d="M2109.435,996.445c-18.394-51.283-47.359-66.891-74.91-99.781-33.647-40.177-56.344-69.379-47.608-121.053,14.277-84.437,20.388-295.024-203.151-267.5-80.122,9.868-143.435,71.265-189.495,132.556-39.194,52.149-109.7,56.749-166.445,68.907-69.723,14.937-140.746,37.506-205.258,70.57-132.857,68.095-172.538,165.983-167.118,291.234,1.635,37.838,6.993,97.445,70.914,167.19,86.274,94.135,211.645,106.742,362.539,63.51,34.541-9.9,67.188-25.417,101.167-37.1a477.365,477.365,0,0,1,109.181-23.708c31.59-3.056,63.6-2.981,95.559-2.91,55.71.127,111.247.251,164.081-16.191a273.934,273.934,0,0,0,116.123-72.019c39.712-41.592,53.833-99.579,34.42-153.707" transform="translate(13149.818 10739)" fill="#eee4f1"/>
    <path id="Path_10963" data-name="Path 10963" d="M1077.984,741.321c0,12.369,156.968,22.4,350.617,22.4,193.621,0,350.589-10.036,350.589-22.4S1622.222,718.91,1428.6,718.91c-193.649,0-350.617,10.033-350.617,22.411Z" transform="translate(13198.195 11187.323)" fill="#d2c6e1"/>
    <path id="Path_10964" data-name="Path 10964" d="M1267.576,744.55c0,7.743-39.848,14.019-89,14.019s-89-6.276-89-14.019,39.848-14.019,89-14.019,89,6.276,89,14.019Z" transform="translate(13222.55 11211.754)" fill="#d2c6e1"/>
    <path id="Path_10965" data-name="Path 10965" d="M1588.339,743.512c0,6.124-66.86,11.091-149.336,11.091s-149.336-4.967-149.336-11.091,66.86-11.094,149.336-11.094,149.336,4.966,149.336,11.094" transform="translate(13643.205 11215.722)" fill="#d2c6e1"/>
    <path id="Path_10966" data-name="Path 10966" d="M1093.156,676.632l-5.736,80.311h76.613l-5.28-80.463-65.6.152Z" transform="translate(13218.033 11098.125)" fill="#ddd3e8"/>
    <path id="Path_10967" data-name="Path 10967" d="M1094.581,680.312h0Zm2.212-1.38a1.421,1.421,0,1,0,0,2.752h0a1.421,1.421,0,1,0,0-2.752Zm-2.625,1.38h0a2.453,2.453,0,0,1,2.621-2.227h0a2.254,2.254,0,1,1,.009,4.445h0a2.455,2.455,0,0,1-2.631-2.218Z" transform="translate(13232.217 11101.499)" fill="#eee4f1"/>
    <path id="Path_10968" data-name="Path 10968" d="M1105.207,678.913a1.991,1.991,0,0,0-1.405.543,1.183,1.183,0,0,0-.369.835,1.626,1.626,0,0,0,1.784,1.371h0a2.036,2.036,0,0,0,1.29-.434,1.222,1.222,0,0,0,.484-.943,1.617,1.617,0,0,0-1.777-1.371Zm-2.621,1.38.425,0-.425,0a2.049,2.049,0,0,1,.614-1.439,2.842,2.842,0,0,1,2.007-.788h.009a2.449,2.449,0,0,1,2.625,2.215,2.044,2.044,0,0,1-.794,1.6,2.874,2.874,0,0,1-1.827.626h0a2.457,2.457,0,0,1-2.63-2.215Z" transform="translate(13249.914 11101.458)" fill="#eee4f1"/>
    <path id="Path_10969" data-name="Path 10969" d="M1107.95,695.574l.748-.012c4.8-.161,8.457-1.706,10.876-4.595,4-4.781,3.1-11.447,3.056-11.73a.838.838,0,0,0-.958-.716.849.849,0,0,0-.723.958c.01.062.835,6.217-2.683,10.408-2.094,2.494-5.336,3.834-9.626,3.977q-6.231.186-9.313-3.251c-3.742-4.163-2.82-11.007-2.811-11.075a.849.849,0,0,0-1.681-.242c-.044.313-1.046,7.681,3.223,12.443,2.28,2.547,5.606,3.834,9.893,3.834Z" transform="translate(13233.339 11102.388)" fill="#eee4f1"/>
    <path id="Path_10970" data-name="Path 10970" d="M1107.087,683.89l-9.155,59.712,83.174-.2-8.42-59.672-65.6.155Z" transform="translate(13240.131 11113.377)" fill="#c3bfdc"/>
    <path id="Path_10971" data-name="Path 10971" d="M1102.385,740.987a7.832,7.832,0,1,1,7.867-7.833,7.829,7.829,0,0,1-7.867,7.833Zm0-24.7a16.87,16.87,0,1,0,16.87,16.87,16.871,16.871,0,0,0-16.87-16.87Z" transform="translate(13214.028 11181.804)" fill="#7b69b0"/>
    <path id="Path_10972" data-name="Path 10972" d="M1101.493,740.987a7.832,7.832,0,1,1,7.864-7.833,7.829,7.829,0,0,1-7.864,7.833Zm0-24.7a16.87,16.87,0,1,0,16.87,16.87,16.874,16.874,0,0,0-16.87-16.87Z" transform="translate(13212.146 11181.804)" fill="#9e94c6"/>
    <path id="Path_10973" data-name="Path 10973" d="M1133.109,740.987a7.832,7.832,0,1,1,7.868-7.833,7.827,7.827,0,0,1-7.868,7.833Zm0-24.7a16.87,16.87,0,1,0,16.873,16.87,16.873,16.873,0,0,0-16.873-16.87Z" transform="translate(13278.617 11181.804)" fill="#7b69b0"/>
    <path id="Path_10974" data-name="Path 10974" d="M1132.215,740.987a7.832,7.832,0,1,1,7.867-7.833,7.827,7.827,0,0,1-7.867,7.833Zm0-24.7a16.87,16.87,0,1,0,16.87,16.87,16.871,16.871,0,0,0-16.87-16.87Z" transform="translate(13276.738 11181.804)" fill="#9e94c6"/>
    <path id="Path_10975" data-name="Path 10975" d="M1228.055,654.491h-50.691a17.771,17.771,0,0,0-15.083,8.376l-30.638,49.192,3.949,2.463,30.638-49.2a13.114,13.114,0,0,1,11.134-6.183h50.691v-4.653" transform="translate(13310.999 11051.899)" fill="#9e94c6"/>
    <path id="Path_10976" data-name="Path 10976" d="M1106.22,770.358v2.327H1219.5a14.607,14.607,0,0,0,14.422-12.294l11.724-73.117a14.963,14.963,0,0,0,.186-2.336,14.614,14.614,0,0,0-14.612-14.584H1094.5a14.61,14.61,0,0,0-14.609,14.584,14.271,14.271,0,0,0,.186,2.336l11.72,73.117a14.607,14.607,0,0,0,14.422,12.294v-4.653a9.954,9.954,0,0,1-9.828-8.379l-11.72-73.114a10.538,10.538,0,0,1-.13-1.6,9.962,9.962,0,0,1,9.958-9.93h136.716a9.962,9.962,0,0,1,9.958,9.93,10.175,10.175,0,0,1-.13,1.6l-11.72,73.114a9.954,9.954,0,0,1-9.828,8.379H1106.22v2.327Z" transform="translate(13202.205 11085.246)" fill="#9e94c6"/>
    <path id="Path_10977" data-name="Path 10977" d="M1105.885,671.1v97.677h4.653V671.1" transform="translate(13256.85 11086.823)" fill="#9e94c6"/>
    <path id="Path_10978" data-name="Path 10978" d="M1232.35,686.1H1082.48v4.653h149.87" transform="translate(13207.646 11118.343)" fill="#9e94c6"/>
    <path id="Path_10979" data-name="Path 10979" d="M1126.88,671.03l-9.695,97.678,4.632.459,9.692-97.677" transform="translate(13280.604 11086.667)" fill="#9e94c6"/>
    <path id="Path_10980" data-name="Path 10980" d="M1092.188,671.461l8.95,97.674,4.632-.422-8.947-97.677" transform="translate(13228.055 11086.681)" fill="#9e94c6"/>
    <path id="Path_10981" data-name="Path 10981" d="M1221.576,703.337l18.35,27.291a8.716,8.716,0,0,1,1.526,4.908,9.025,9.025,0,0,1-2.491,6.18,8.666,8.666,0,0,1-6.381,2.705h-150.1v4.653h150.1a13.336,13.336,0,0,0,9.753-4.151,13.671,13.671,0,0,0,3.772-9.387,13.381,13.381,0,0,0-2.317-7.5l-18.35-27.291-3.862,2.6Z" transform="translate(13207.646 11149.125)" fill="#9e94c6"/>
    <path id="Path_10982" data-name="Path 10982" d="M1360.389,747.136H1205v-41.8h155.386v41.8Z" transform="translate(13465.222 11158.788)" fill="#341a88"/>
    <path id="Path_10983" data-name="Path 10983" d="M1653.032,972.346H1172.614a29.122,29.122,0,0,1-29.121-29.121V613.937a29.12,29.12,0,0,1,29.121-29.121h480.418a29.121,29.121,0,0,1,29.124,29.121V943.226a29.123,29.123,0,0,1-29.124,29.121" transform="translate(13335.912 10905.424)" fill="#472f92"/>
    <path id="Path_10984" data-name="Path 10984" d="M1637.382,925.589H1166.237a17.892,17.892,0,0,1-17.894-17.894V607.264a17.894,17.894,0,0,1,17.894-17.894h471.146a17.9,17.9,0,0,1,17.894,17.894V907.7a17.894,17.894,0,0,1-17.894,17.894" transform="translate(13346.107 10914.999)" fill="#c9bada"/>
    <path id="Path_10985" data-name="Path 10985" d="M1472.439,743.992H1183.473v-3.636a22.719,22.719,0,0,1,22.718-22.718h243.533a22.717,22.717,0,0,1,22.715,22.718v3.636Z" transform="translate(13419.96 11184.649)" fill="#472f92"/>
    <path id="Path_10986" data-name="Path 10986" d="M1526.529,835.277h-71.485v-37.8h16.774v-6.031h-16.774V778.881h16.774V772.85h-16.774V738.536h61.462v-2.77h-61.462v-5.841h61.462v-2.767h-61.462v-5.841h61.462v-2.767h-61.462v-5.841h61.462v-2.77h-61.462v-5.841h61.462v-2.767h-61.462v-5.841h61.462v-2.767h-61.462v-5.842h61.462V684.11h-61.462v-5.842h19.305a1.973,1.973,0,0,0-.773,2.175c.224.949,4.716,2.981,11.224,3.416.248.019.534.025.844.025a31.981,31.981,0,0,0,6.586-.741,13.787,13.787,0,0,0,4.632-2.522l1,1.337,7.88-1.9s0-.708-.019-1.79h10.78V675.5h-10.824a10.075,10.075,0,0,0-1.687-4.765l.024-1.076h12.487V666.89h-12.418l.016-.639,4.368-.515s.561-1.818,1.467-4.687h6.568v-2.767h-5.689c2.9-9.1,7.79-24.077,10.594-30.573q.373-.856.748-1.706h19.91v84.012c-8.906,11.351-22.687,30.995-9.09,39.849,2.43,1.582,5.886,2.218,9.09,2.522v18.083c-1.74.875-3.36,2.77-2.851,4.2l.108.282.062.5,2.68,7.569v36.712a15.542,15.542,0,0,1-15.539,15.542m-32.155-43.835v6.031h22.131v-6.031h-22.131m-13.535-4.579v10.609h10.61V786.863h-10.61m13.535-14.013v6.031h22.131V772.85h-22.131m-13.535-4.579v10.61h10.61v-10.61h-10.61M1487.5,675.5h-32.456v-5.841h6.251a27.05,27.05,0,0,0,4.61.366,35.976,35.976,0,0,0,3.788-.2c.3-.034.655-.087,1.036-.161h21.908a4.784,4.784,0,0,1-.137.527,10.965,10.965,0,0,1-5,5.314m5.7-8.609h-14.745c.4-.286.76-.586,1.083-.872a9.155,9.155,0,0,0,2.429-.586l.264.248,7.433-3.236s-.1-.561-.251-1.4h4.852c-.412,2.342-.776,4.325-1.064,5.842m-35.236,0h-2.916v-5.842h13.715A33.013,33.013,0,0,1,1458.584,665a1.619,1.619,0,0,0,.1.89,2.584,2.584,0,0,0-.726,1m31.857-8.609h-.943c-.218-1.07-.453-2.147-.67-2.972a4.253,4.253,0,0,0-.49-1.145q1.085-2.95,2.116-5.925c.05,3.425.047,6.778-.012,10.042m-17.487,0h-17.286v-2.429a15.543,15.543,0,0,0-15.543-15.542H1187.366V612.4a15.542,15.542,0,0,1,15.542-15.542h0a15.542,15.542,0,0,0-15.542,15.542V626h278.4c.881,2.37,1.75,4.681,2.6,6.909h-257.5v6.335h259.941c.8,2.032,1.563,3.958,2.292,5.764a12.962,12.962,0,0,0,4.3,1.228,22.37,22.37,0,0,1-1.381,6.524l-.127-.006c-.075,0-.143-.006-.2-.006-.838,0-.437.425-.791,2.261l-.025.09a16.523,16.523,0,0,1-2.55,3.18m69.738-45.882a15.541,15.541,0,0,0-13.8-15.446h0a15.541,15.541,0,0,1,13.8,15.446h0" transform="translate(13428.144 10930.734)" fill="#ded4e8"/>
    <path id="Path_10987" data-name="Path 10987" d="M1290.425,665.611h-16.774V659.58h16.774v6.031" transform="translate(13609.536 11062.598)" fill="#dbd0e6"/>
    <path id="Path_10988" data-name="Path 10988" d="M1290.425,659.618h-16.774v-6.031h16.774v6.031" transform="translate(13609.536 11049.998)" fill="#dbd0e6"/>
    <path id="Path_10989" data-name="Path 10989" d="M1292.575,662.721h-10.609v-10.61h10.609v10.61" transform="translate(13627.018 11046.896)" fill="#cdbfdd"/>
    <path id="Path_10990" data-name="Path 10990" d="M1292.575,668.714h-10.609V658.1h10.609v10.609" transform="translate(13627.018 11059.493)" fill="#d8bfb5"/>
    <path id="Path_10991" data-name="Path 10991" d="M1308.46,665.611h-22.131V659.58h22.131v6.031" transform="translate(13636.189 11062.598)" fill="#dbd0e6"/>
    <path id="Path_10992" data-name="Path 10992" d="M1308.46,659.618h-22.131v-6.031h22.131v6.031" transform="translate(13636.189 11049.998)" fill="#dbd0e6"/>
    <path id="Path_10993" data-name="Path 10993" d="M1335.113,622.2h-12.487l.068-2.767h12.419V622.2m-23.868,0h-21.908a32.081,32.081,0,0,0,6.155-1.833,9.532,9.532,0,0,0,1.567-.934H1311.8c-.242,1.272-.431,2.215-.558,2.767m-31.342,0h-6.251v-2.767h2.916a1.985,1.985,0,0,0,.084,1.507c.183.428,1.365.928,3.251,1.26" transform="translate(13609.536 10978.194)" fill="#dbd0e6"/>
    <path id="Path_10994" data-name="Path 10994" d="M1454.884,614.813H1194.943v-6.335h257.5c.837,2.2,1.653,4.318,2.444,6.335" transform="translate(13444.072 10955.168)" fill="#dbd0e6"/>
    <path id="Path_10995" data-name="Path 10995" d="M1335.113,624.976h-10.78c-.01-.763-.022-1.712-.043-2.73v-.04h10.824v2.77m-42.156,0h-19.305v-2.77h32.456a11.351,11.351,0,0,1-4.446,1.318c-1.334.109-6.627-.149-8.705,1.452" transform="translate(13609.536 10984.027)" fill="#dbd0e6"/>
    <path id="Path_10996" data-name="Path 10996" d="M1335.113,619.423h-6.568c.267-.838.558-1.768.878-2.767h5.689v2.767m-22.246,0h-4.852c-.14-.766-.329-1.762-.534-2.767h.943c0,.229-.006.462-.012.692a9.038,9.038,0,0,0,4.53,1.65l-.075.425m-25.5,0h-13.715v-2.767h17.286a20.822,20.822,0,0,1-3.571,2.767" transform="translate(13609.536 10972.359)" fill="#dbd0e6"/>
    <path id="Path_10997" data-name="Path 10997" d="M1335.113,627.749h-61.462v-2.767h61.462v2.767" transform="translate(13609.536 10989.862)" fill="#dbd0e6"/>
    <path id="Path_10998" data-name="Path 10998" d="M1335.113,630.524h-61.462v-2.768h61.462v2.768" transform="translate(13609.536 10995.696)" fill="#dbd0e6"/>
    <path id="Path_10999" data-name="Path 10999" d="M1335.113,633.3h-61.462v-2.768h61.462V633.3" transform="translate(13609.536 11001.53)" fill="#dbd0e6"/>
    <path id="Path_11000" data-name="Path 11000" d="M1335.113,636.077h-61.462v-2.77h61.462v2.77" transform="translate(13609.536 11007.364)" fill="#dbd0e6"/>
    <path id="Path_11001" data-name="Path 11001" d="M1335.113,638.85h-61.462v-2.767h61.462v2.767" transform="translate(13609.536 11013.2)" fill="#dbd0e6"/>
    <path id="Path_11002" data-name="Path 11002" d="M1335.113,641.625h-61.462v-2.767h61.462v2.767" transform="translate(13609.536 11019.035)" fill="#dbd0e6"/>
    <path id="Path_11003" data-name="Path 11003" d="M1335.113,644.4h-61.462v-2.77h61.462v2.77" transform="translate(13609.536 11024.868)" fill="#dbd0e6"/>
    <path id="Path_11004" data-name="Path 11004" d="M1542.068,626h-19.91a69.865,69.865,0,0,0,3.933-10.259,4.481,4.481,0,1,0,2.4-8.261,4.557,4.557,0,0,0-1.092.133c.215-2.37.342-4.753.531-7.123q.14-1.773.329-3.54a15.541,15.541,0,0,1,13.8,15.446V626m-76.3,0h-278.4V612.4a15.542,15.542,0,0,1,15.542-15.542h252.548c3.292,9.8,6.893,19.938,10.312,29.146" transform="translate(13428.144 10930.734)" fill="#c2b2d6"/>
    <path id="Path_11005" data-name="Path 11005" d="M1298.957,609.243a4.453,4.453,0,0,1-2.4-.7l.034-.124a49,49,0,0,0,1.278-8,4.553,4.553,0,0,1,1.092-.133,4.481,4.481,0,1,1,0,8.963" transform="translate(13657.682 10937.936)" fill="#d5c9e2"/>
    <path id="Path_11006" data-name="Path 11006" d="M1496.154,850.864H1172.536a15.542,15.542,0,0,1-15.542-15.542V694.529a18.559,18.559,0,0,0,1.905-3.245c1.138-2.55-.574-3.592-.652-4.805-.043-.633.773-4.325.652-4.8-.193-.859-.931-1.3-1.905-1.514v-8.519c2.643-2.165,4.412-4.163,4.412-5.072,0-.3-.224-.431-.605-.431a11.767,11.767,0,0,0-3.806,1.278V627.986a15.529,15.529,0,0,1,7.762-13.458,15.549,15.549,0,0,0-.565,4.172V826.04a15.541,15.541,0,0,0,15.539,15.539h323.621a15.459,15.459,0,0,0,7.777-2.081,15.545,15.545,0,0,1-14.974,11.366" transform="translate(13364.294 10967.886)" fill="#ae9ccb"/>
    <path id="Path_11007" data-name="Path 11007" d="M1498.474,849.283H1174.853a15.541,15.541,0,0,1-15.539-15.539V626.405a15.542,15.542,0,0,1,15.539-15.542h323.621a15.543,15.543,0,0,1,15.543,15.542V833.744a15.542,15.542,0,0,1-15.543,15.539" transform="translate(13369.171 10960.182)" fill="#fff"/>
    <path id="Path_11008" data-name="Path 11008" d="M1185.63,705.793H1170.18V667.005h15.449v38.788" transform="translate(13392.015 11078.206)" fill="#ff9b01"/>
    <path id="Path_11009" data-name="Path 11009" d="M1196.853,656.028H1181.4v72.841h15.449V656.028" transform="translate(13415.608 11055.13)" fill="#b3a1cd"/>
    <path id="Path_11010" data-name="Path 11010" d="M1208.075,658.456h-15.449v65.309h15.449V658.456" transform="translate(13439.201 11060.233)" fill="#ff9b01"/>
    <path id="Path_11011" data-name="Path 11011" d="M1219.3,646.57h-15.449V748.752H1219.3V646.57" transform="translate(13462.796 11035.247)" fill="#b3a1cd"/>
    <path id="Path_11012" data-name="Path 11012" d="M1188.495,728.869H1181.4V656.028h7.092v72.841" transform="translate(13415.608 11055.13)" fill="#ad9ac9"/>
    <path id="Path_11013" data-name="Path 11013" d="M1177.272,705.793h-7.092V667.005h7.092v38.788" transform="translate(13392.015 11078.206)" fill="#f79202"/>
    <path id="Path_11014" data-name="Path 11014" d="M1210.941,748.752h-7.091V646.57h7.091V748.752" transform="translate(13462.796 11035.247)" fill="#9380bc"/>
    <path id="Path_11015" data-name="Path 11015" d="M1199.718,723.765h-7.092V658.456h7.092v65.309" transform="translate(13439.201 11060.233)" fill="#f79202"/>
    <path id="Path_11016" data-name="Path 11016" d="M1305.171,773.815h-138.28V639.727H1169V771.706h136.17v2.109Z" transform="translate(13385.1 11020.86)" fill="#d7dcd3"/>
    <path id="Path_11017" data-name="Path 11017" d="M1172.423,706.661l-1.408-1.57,36.172-32.481,33.5,7.278,36.281-40.388,1.57,1.408-37.1,41.3L1207.8,674.9l-35.372,31.761Z" transform="translate(13393.771 11020.384)" fill="#d7dcd3"/>
    <path id="Path_11018" data-name="Path 11018" d="M1213.523,650.919l-10.228-9.81,13.207-3.533-2.978,13.343Z" transform="translate(13461.629 11016.339)" fill="#d7dcd3"/>
    <path id="Path_11019" data-name="Path 11019" d="M1226.3,676.728h-10.609v-10.61H1226.3v10.61Z" transform="translate(13487.681 11076.341)" fill="#b3a1cd"/>
    <path id="Path_11020" data-name="Path 11020" d="M1226.3,682.721h-10.609v-10.61H1226.3v10.61Z" transform="translate(13487.681 11088.94)" fill="#ff9b01"/>
    <path id="Path_11021" data-name="Path 11021" d="M1253.682,679.618h-33.635v-6.031h33.635v6.031Z" transform="translate(13496.849 11092.043)" fill="#f3f2ef"/>
    <path id="Path_11022" data-name="Path 11022" d="M1253.682,673.625h-33.635v-6.031h33.635v6.031Z" transform="translate(13496.849 11079.445)" fill="#f3f2ef"/>
    <path id="Path_11023" data-name="Path 11023" d="M1246.41,676.728H1235.8v-10.61h10.609v10.61Z" transform="translate(13529.967 11076.341)" fill="#b3a1cd"/>
    <path id="Path_11024" data-name="Path 11024" d="M1246.41,682.721H1235.8v-10.61h10.609v10.61Z" transform="translate(13529.967 11088.94)" fill="#ff9b01"/>
    <path id="Path_11025" data-name="Path 11025" d="M1273.8,679.618h-33.635v-6.031H1273.8v6.031Z" transform="translate(13539.137 11092.043)" fill="#f3f2ef"/>
    <path id="Path_11026" data-name="Path 11026" d="M1273.8,673.625h-33.635v-6.031H1273.8v6.031Z" transform="translate(13539.137 11079.445)" fill="#f3f2ef"/>
    <path id="Path_11027" data-name="Path 11027" d="M1264.524,676.728h-10.609v-10.61h10.609v10.61Z" transform="translate(13568.044 11076.341)" fill="#b3a1cd"/>
    <path id="Path_11028" data-name="Path 11028" d="M1264.524,682.721h-10.609v-10.61h10.609v10.61Z" transform="translate(13568.044 11088.94)" fill="#ff9b01"/>
    <path id="Path_11029" data-name="Path 11029" d="M1280.411,679.618h-22.135v-6.031h22.135v6.031Z" transform="translate(13577.215 11092.043)" fill="#f3f2ef"/>
    <path id="Path_11030" data-name="Path 11030" d="M1280.411,673.625h-22.135v-6.031h22.135v6.031Z" transform="translate(13577.215 11079.445)" fill="#f3f2ef"/>
    <path id="Path_11031" data-name="Path 11031" d="M1368.6,636.208H1216.326v-2.77H1368.6v2.77Z" transform="translate(13489.025 11007.64)" fill="#f3f2ef"/>
    <path id="Path_11032" data-name="Path 11032" d="M1472.525,628.82H1166.891v-6.335h305.634v6.335Z" transform="translate(13385.1 10984.614)" fill="#f3f2ef"/>
    <path id="Path_11033" data-name="Path 11033" d="M1368.909,638.983h-152.73v-2.77h152.73v2.77Z" transform="translate(13488.716 11013.474)" fill="#f3f2ef"/>
    <path id="Path_11034" data-name="Path 11034" d="M1368.909,633.43h-152.73v-2.767h152.73v2.767Z" transform="translate(13488.716 11001.807)" fill="#f3f2ef"/>
    <path id="Path_11035" data-name="Path 11035" d="M1368.909,641.756h-152.73v-2.767h152.73v2.767Z" transform="translate(13488.716 11019.309)" fill="#f3f2ef"/>
    <path id="Path_11036" data-name="Path 11036" d="M1368.909,644.531h-152.73v-2.767h152.73v2.767Z" transform="translate(13488.716 11025.144)" fill="#f3f2ef"/>
    <path id="Path_11037" data-name="Path 11037" d="M1368.909,647.309h-152.73v-2.771h152.73v2.771Z" transform="translate(13488.716 11030.977)" fill="#f3f2ef"/>
    <path id="Path_11038" data-name="Path 11038" d="M1368.909,650.082h-152.73v-2.767h152.73v2.767Z" transform="translate(13488.716 11036.813)" fill="#f3f2ef"/>
    <path id="Path_11039" data-name="Path 11039" d="M1368.909,652.857h-152.73V650.09h152.73v2.767Z" transform="translate(13488.716 11042.646)" fill="#f3f2ef"/>
    <path id="Path_11040" data-name="Path 11040" d="M1368.909,655.632h-152.73v-2.767h152.73v2.767Z" transform="translate(13488.716 11048.479)" fill="#f3f2ef"/>
    <path id="Path_11041" data-name="Path 11041" d="M1356.239,658.41H1222.206v-2.77h134.033v2.77Z" transform="translate(13501.386 11054.314)" fill="#f3f2ef"/>
    <path id="Path_11042" data-name="Path 11042" d="M1498.474,610.863H1174.856a15.542,15.542,0,0,0-15.542,15.542v13.6h354.7v-13.6a15.543,15.543,0,0,0-15.543-15.542Z" transform="translate(13369.171 10960.182)" fill="#a795c7"/>
    <path id="Path_11043" data-name="Path 11043" d="M1265.018,618.768a4.481,4.481,0,1,1-4.482-4.48,4.483,4.483,0,0,1,4.482,4.48Z" transform="translate(13572.547 10967.381)" fill="#d5cae3"/>
    <path id="Path_11044" data-name="Path 11044" d="M1270.909,618.768a4.483,4.483,0,1,1-4.483-4.48,4.483,4.483,0,0,1,4.483,4.48Z" transform="translate(13584.923 10967.381)" fill="#d5cae3"/>
    <path id="Path_11045" data-name="Path 11045" d="M1276.793,618.768a4.481,4.481,0,1,1-4.48-4.48,4.482,4.482,0,0,1,4.48,4.48Z" transform="translate(13597.302 10967.381)" fill="#d5cae3"/>
    <path id="Path_11046" data-name="Path 11046" d="M1337.129,597.844h-22.591a45.628,45.628,0,0,0-2.265-9.511c11.326,1.5,21.443,3,31.373,3a75.5,75.5,0,0,0,24.331-3.754,14.261,14.261,0,0,0,4.278-2.24c.859.27,1.7.583,2.528.931-.45.2-1.427,4.381-10.638,7.238a26.587,26.587,0,0,1-8.259,1.1c-1.148,0-2.333-.034-3.6-.065s-2.606-.068-4.064-.068c-2.156,0-4.566.075-7.352.329a4.227,4.227,0,0,0-2.873,1,4.036,4.036,0,0,0-.741,1.591c-.047.152-.09.3-.133.453m-47.421,0h-9.018q-.1-5.23-.211-10.457c2.413.14,4.886.214,7.371.214q.721,0,1.442-.009c.071,3.152.217,6.589.416,10.253" transform="translate(13623.891 10906.523)" fill="#321b88"/>
    <path id="Path_11047" data-name="Path 11047" d="M1332.374,612.69a15.228,15.228,0,0,0-1.735-.1h-15.88a116.3,116.3,0,0,0-.363-23.224h22.59a134.106,134.106,0,0,0-4.613,23.32m-41.235-.1h-8.674c-.5-3.537-1.052-7.02-1.672-10.389q-.117-6.417-.245-12.834h9.018c.385,7.039.962,14.916,1.573,23.224" transform="translate(13624.033 10914.999)" fill="#9682bd"/>
    <path id="Path_11048" data-name="Path 11048" d="M1302.276,683.884c-.31,0-.6-.006-.844-.025-6.509-.434-11-2.466-11.224-3.416a1.974,1.974,0,0,1,.772-2.175h31.376c.016,1.083.019,1.79.019,1.79l-7.88,1.9-1-1.337a13.785,13.785,0,0,1-4.632,2.522,31.984,31.984,0,0,1-6.586.741m20.037-8.385h-18.182a10.965,10.965,0,0,0,5-5.314,4.852,4.852,0,0,0,.137-.527h11.382l-.024,1.076a10.072,10.072,0,0,1,1.688,4.765m-39.777-5.475a27.047,27.047,0,0,1-4.61-.366h9.434c-.382.074-.735.127-1.036.161a35.982,35.982,0,0,1-3.788.2m38.182-3.133h-10.892c.288-1.517.652-3.5,1.064-5.842h15.679c-.906,2.87-1.467,4.688-1.467,4.688l-4.368.515-.016.639m-25.636,0h-20.491a2.587,2.587,0,0,1,.726-1,1.618,1.618,0,0,1-.1-.89,33.014,33.014,0,0,0,10.175-3.949h20.649c.152.835.251,1.4.251,1.4l-7.433,3.236-.264-.248a9.154,9.154,0,0,1-2.429.586c-.323.285-.686.586-1.083.872m32.366-8.609h-8.575c.521-5.085,1.576-11.652,2.779-19.035h11.485V632.91h-10.448q.544-3.388,1.095-6.909h15.006q-.377.852-.748,1.706c-2.8,6.5-7.693,21.47-10.594,30.573m-21.942,0h-16.544a16.527,16.527,0,0,0,2.55-3.18l.025-.09c.354-1.836-.047-2.261.791-2.261.059,0,.127,0,.2.006l.127.006a22.37,22.37,0,0,0,1.381-6.524c.229.019.45.025.661.025a5.1,5.1,0,0,0,4.635-2.3c-.106-1.5-.215-3.071-.329-4.718h7.238c.106,3.034.18,6.04.22,8.993q-1.029,2.969-2.116,5.925a4.257,4.257,0,0,1,.49,1.145c.217.825.453,1.9.67,2.972m.481-25.37h-7.43c-.162-2.227-.332-4.538-.518-6.909h7.594c.13,2.305.248,4.616.354,6.909m38.909-35.958a15.268,15.268,0,0,0-1.738-.1h0a15.254,15.254,0,0,1,1.735.1h0" transform="translate(13611.512 10930.734)" fill="#aa97c8"/>
    <path id="Path_11049" data-name="Path 11049" d="M1320.725,622.2h-11.382c.127-.552.316-1.5.558-2.767h10.892l-.068,2.767m-33.29,0H1278c-1.886-.332-3.068-.832-3.251-1.26a1.985,1.985,0,0,1-.084-1.507h20.491a9.526,9.526,0,0,1-1.567.934,32.082,32.082,0,0,1-6.155,1.833" transform="translate(13611.438 10978.194)" fill="#a591c5"/>
    <path id="Path_11050" data-name="Path 11050" d="M1316.9,614.813h-11.485c.338-2.051.686-4.173,1.036-6.335H1316.9v6.335m-26.9,0h-7.238c-.14-2.014-.288-4.135-.446-6.335h7.43q.144,3.188.254,6.335" transform="translate(13627.753 10955.168)" fill="#a591c5"/>
    <path id="Path_11051" data-name="Path 11051" d="M1311.25,624.976h-31.376c2.078-1.6,7.371-1.343,8.7-1.452a11.35,11.35,0,0,0,4.446-1.318h18.182v.04c.021,1.018.034,1.967.043,2.73" transform="translate(13622.619 10984.027)" fill="#a591c5"/>
    <path id="Path_11052" data-name="Path 11052" d="M1319.251,619.423h-15.678l.075-.425a12.075,12.075,0,0,0,1.34.074,15.935,15.935,0,0,0,6.481-1.5c.028-.3.055-.6.087-.915h8.575c-.32,1-.611,1.93-.879,2.767m-20.53,0h-20.649a20.833,20.833,0,0,0,3.571-2.767h16.544c.2,1.005.394,2,.534,2.767" transform="translate(13618.831 10972.359)" fill="#a591c5"/>
    <path id="Path_11053" data-name="Path 11053" d="M1324.969,626h-15.005c.5-3.236.992-6.54,1.445-9.865a4.482,4.482,0,1,0,1.635-8.655,4.741,4.741,0,0,0-.558.034c.4-3.586.735-7.157.974-10.659h15.877a15.269,15.269,0,0,1,1.738.1q-.187,1.768-.329,3.54c-.189,2.37-.316,4.753-.531,7.123a4.482,4.482,0,0,0-1.312,8.128A69.907,69.907,0,0,1,1324.969,626m-33.157,0h-7.595c-.729-9.232-1.678-19.386-3.052-29.146h8.674c.316,4.26.639,8.633.949,13.064a4.474,4.474,0,0,0,.317,4.61c.254,3.81.5,7.644.707,11.472" transform="translate(13625.333 10930.734)" fill="#907bb9"/>
    <path id="Path_11054" data-name="Path 11054" d="M1284.918,605.677a4.475,4.475,0,0,1-.317-4.61c.105,1.532.214,3.068.317,4.61" transform="translate(13631.521 10939.587)" fill="#a08cc2"/>
    <path id="Path_11055" data-name="Path 11055" d="M1292.549,609.243a4.469,4.469,0,0,1-1.635-.307c.391-2.863.754-5.749,1.077-8.621a4.746,4.746,0,0,1,.559-.034,4.481,4.481,0,0,1,0,8.963" transform="translate(13645.828 10937.936)" fill="#a08cc2"/>
    <path id="Path_11056" data-name="Path 11056" d="M1297.959,608.452a4.482,4.482,0,0,1,1.312-8.128,49,49,0,0,1-1.278,8l-.034.124" transform="translate(13656.276 10938.025)" fill="#a08cc2"/>
    <path id="Path_11057" data-name="Path 11057" d="M1311.751,714.625V635.033c5.55-6.94,11.1-13.948,16.681-21.25v96.331c-.742.245-1.49.468-2.231.679-4.787,1.352-9.6,2.708-14.45,3.831" transform="translate(13689.632 10966.32)" fill="#321b88"/>
    <path id="Path_11058" data-name="Path 11058" d="M1312.254,702.93c-1.427,0-2.86-.05-4.291-.152-1.585-.112-3.853-.152-6.26-.378V660.028c2-2.55,3.76-4.684,4.905-6.18,8.788-11.506,17.522-22.277,26.267-33.216v79.592a91.5,91.5,0,0,1-20.621,2.705" transform="translate(13668.511 10980.722)" fill="#9682bd"/>
    <path id="Path_11059" data-name="Path 11059" d="M1311.736,675.7c-3.2-.3-6.66-.94-9.09-2.522-13.6-8.854.184-28.5,9.09-39.849V675.7" transform="translate(13658.476 11007.417)" fill="#aa97c8"/>
    <path id="Path_11060" data-name="Path 11060" d="M1318.046,709.88h-3.5a29.885,29.885,0,0,0,3.555-.214l-.053.214" transform="translate(13674.399 11167.892)" fill="#b8a3ce"/>
    <path id="Path_11061" data-name="Path 11061" d="M1314.544,835.935h-10.039l.08-37.184h4.505a17.822,17.822,0,0,0,10.324-3.276v35.139l-1.315,5.106a29.859,29.859,0,0,1-3.555.214m12.44-152.65V649.7a6.561,6.561,0,0,1,.437.965l1.874,5.292,6.223-.481.149.453,8-.617V678.13h-2.693a21.466,21.466,0,0,0-13.988,5.156" transform="translate(13674.399 11041.835)" fill="#321b88"/>
    <path id="Path_11062" data-name="Path 11062" d="M1314.981,801.489h-4.5l.214-101.478-8.988-25.352V662.1a4.046,4.046,0,0,1,1.747-.484l13.489-1.046-.14-.456,6.549-.506c-.624-1.759-1.532-4.328-1.858-5.243-1.067-3.018.71-5.68,3.977-5.947.177-.016.354-.022.534-.022a8.2,8.2,0,0,1,6.875,4.039v33.582a21.506,21.506,0,0,0-7.569,16.4v95.788a17.823,17.823,0,0,1-10.324,3.276m11.658-150.608c-.1,0-.2,0-.3.012a2.4,2.4,0,0,0-2.228,3.335,4.516,4.516,0,0,0,4.1,2.808c.1,0,.2-.006.3-.012a2.407,2.407,0,0,0,2.23-3.338,4.525,4.525,0,0,0-4.1-2.8" transform="translate(13668.511 11039.099)" fill="#9682bd"/>
    <path id="Path_11063" data-name="Path 11063" d="M1303.7,665.374l-2.68-7.569-.063-.5-.108-.282c-.509-1.433,1.11-3.329,2.851-4.2v12.555" transform="translate(13666.513 11048.383)" fill="#aa97c8"/>
    <path id="Path_11064" data-name="Path 11064" d="M1143.493,659.329v-9.462c5.959-3.341,11.46-6.468,15.046-8.509V650.2c-4.195,2.566-9.5,5.8-15.046,9.133" transform="translate(13335.912 11024.287)" fill="#321b88"/>
    <path id="Path_11065" data-name="Path 11065" d="M1148.343,670.753v-8.838c2.581-1.47,4.175-2.379,4.24-2.4a12.819,12.819,0,0,0,4.3.757c6.453,0,11.559-5.094,13.421-8.959,1.015-2.1-.509-2.963-.577-3.962-.025-.366.325-1.985.5-3.046q.372-.023.782-.056c.7-.05,1.464-.1,2.206-.1a9.627,9.627,0,0,1,1.97.171v14.364c-2.811,3.875-7.554,7.622-13.216,7.622a13.461,13.461,0,0,1-4.843-.918c-.1.04-3.589,2.19-8.779,5.364m20.481-28.562a8.353,8.353,0,0,0-1.96-.189c-.658,0-1.334.04-1.957.08s-1.191.081-1.635.081h-.168a36.627,36.627,0,0,1,4.049-5.876,44.868,44.868,0,0,1,8.029-4.709V635.8c-.993.816-2.109,1.654-3.3,2.469a9.547,9.547,0,0,0-3.052,3.918" transform="translate(13346.107 11003.73)" fill="#9682bd"/>
    <path id="Path_11066" data-name="Path 11066" d="M1156.994,659.552V645.188c.974.214,1.712.655,1.905,1.514.121.475-.695,4.166-.652,4.8.078,1.213,1.79,2.255.652,4.805a18.556,18.556,0,0,1-1.905,3.245m0-22.882v-4.225a11.767,11.767,0,0,1,3.806-1.278c.382,0,.605.13.605.431,0,.909-1.769,2.907-4.412,5.072" transform="translate(13364.294 11002.864)" fill="#7a68af"/>
    <path id="Path_11067" data-name="Path 11067" d="M1497.183,901.06H1330.869a21.557,21.557,0,0,1-21.557-21.558V680.424a21.557,21.557,0,0,1,21.557-21.558h166.315a21.557,21.557,0,0,1,21.557,21.558V879.5a21.557,21.557,0,0,1-21.557,21.558" transform="translate(13684.504 11061.099)" fill="#a699c9"/>
    <path id="Path_11068" data-name="Path 11068" d="M1487.175,716.786H1321.056a5.5,5.5,0,0,1-5.5-5.5V672.538a5.5,5.5,0,0,1,5.5-5.5h166.119a5.5,5.5,0,0,1,5.5,5.5v38.747a5.5,5.5,0,0,1-5.5,5.5" transform="translate(13697.631 11078.275)" fill="#8979b8"/>
    <path id="Path_11069" data-name="Path 11069" d="M1355.6,720.338h-34.544a5.5,5.5,0,0,1-5.5-5.5V694.26a5.5,5.5,0,0,1,5.5-5.5H1355.6a5.5,5.5,0,0,1,5.5,5.5v20.58a5.5,5.5,0,0,1-5.5,5.5" transform="translate(13697.631 11123.94)" fill="#8979b8"/>
    <path id="Path_11070" data-name="Path 11070" d="M1376.806,720.338h-34.544a5.5,5.5,0,0,1-5.5-5.5V694.26a5.5,5.5,0,0,1,5.5-5.5h34.544a5.5,5.5,0,0,1,5.5,5.5v20.58a5.5,5.5,0,0,1-5.5,5.5" transform="translate(13742.212 11123.94)" fill="#8979b8"/>
    <path id="Path_11071" data-name="Path 11071" d="M1398.013,720.338h-34.544a5.5,5.5,0,0,1-5.5-5.5V694.26a5.5,5.5,0,0,1,5.5-5.5h34.544a5.5,5.5,0,0,1,5.5,5.5v20.58a5.5,5.5,0,0,1-5.5,5.5" transform="translate(13786.795 11123.94)" fill="#8979b8"/>
    <path id="Path_11072" data-name="Path 11072" d="M1355.6,736.7h-34.544a5.5,5.5,0,0,1-5.5-5.5V710.624a5.5,5.5,0,0,1,5.5-5.5H1355.6a5.5,5.5,0,0,1,5.5,5.5V731.2a5.5,5.5,0,0,1-5.5,5.5" transform="translate(13697.631 11158.343)" fill="#8979b8"/>
    <path id="Path_11073" data-name="Path 11073" d="M1376.806,736.7h-34.544a5.5,5.5,0,0,1-5.5-5.5V710.624a5.5,5.5,0,0,1,5.5-5.5h34.544a5.5,5.5,0,0,1,5.5,5.5V731.2a5.5,5.5,0,0,1-5.5,5.5" transform="translate(13742.212 11158.343)" fill="#8979b8"/>
    <path id="Path_11074" data-name="Path 11074" d="M1355.6,753.065h-34.544a5.5,5.5,0,0,1-5.5-5.5V726.987a5.5,5.5,0,0,1,5.5-5.5H1355.6a5.5,5.5,0,0,1,5.5,5.5v20.577a5.5,5.5,0,0,1-5.5,5.5" transform="translate(13697.631 11192.742)" fill="#8979b8"/>
    <path id="Path_11075" data-name="Path 11075" d="M1376.806,753.065h-34.544a5.5,5.5,0,0,1-5.5-5.5V726.987a5.5,5.5,0,0,1,5.5-5.5h34.544a5.5,5.5,0,0,1,5.5,5.5v20.577a5.5,5.5,0,0,1-5.5,5.5" transform="translate(13742.212 11192.742)" fill="#8979b8"/>
    <path id="Path_11076" data-name="Path 11076" d="M1398.013,787.464h-34.544a5.5,5.5,0,0,1-5.5-5.5V710.624a5.5,5.5,0,0,1,5.5-5.5h34.544a5.5,5.5,0,0,1,5.5,5.5v71.339a5.5,5.5,0,0,1-5.5,5.5Z" transform="translate(13786.795 11158.343)" fill="#8979b8"/>
    <path id="Path_11077" data-name="Path 11077" d="M1314.58,670.059a5.5,5.5,0,0,1,5.308-4.058h166.123a5.5,5.5,0,0,1,5.15,3.568,5.478,5.478,0,0,0-1.933-.351H1323.109a5.683,5.683,0,0,0-1.086.105l-7.442.735" transform="translate(13695.58 11076.096)" fill="#c4b7d9"/>
    <path id="Path_11078" data-name="Path 11078" d="M1480.967,713.565h-89.506l-4.086-14.131-69.311-32.4-1.086.105a5.691,5.691,0,0,1,1.086-.105h166.119a1.724,1.724,0,0,1,2.284,2.283v38.744a5.5,5.5,0,0,1-5.5,5.5" transform="translate(13700.623 11078.275)" fill="#b9a7d0"/>
    <path id="Path_11079" data-name="Path 11079" d="M1318.086,718.95a5.5,5.5,0,0,1-3.568-5.15V693.223a5.5,5.5,0,0,1,5.5-5.5h6.989q-.037,1.568-.081,3.217h-3.688a5.5,5.5,0,0,0-5.5,5.5v20.58a5.443,5.443,0,0,0,.347,1.93" transform="translate(13695.449 11121.762)" fill="#c4b7d9"/>
    <path id="Path_11080" data-name="Path 11080" d="M1352.379,717.121h-.676l6.177-17.106v11.606a5.5,5.5,0,0,1-5.5,5.5m-28.311,0h-6.233a1.721,1.721,0,0,1-2.28-2.28V694.26a5.5,5.5,0,0,1,5.5-5.5h3.688c-.214,8.711-.462,18.97-.676,28.361" transform="translate(13697.631 11123.94)" fill="#b9a7d0"/>
    <path id="Path_11081" data-name="Path 11081" d="M1366.4,691.29a5.456,5.456,0,0,0-1.933-.35h-20.9l-.93-3.217h18.616a5.5,5.5,0,0,1,5.15,3.567" transform="translate(13754.553 11121.762)" fill="#c4b7d9"/>
    <path id="Path_11082" data-name="Path 11082" d="M1360.618,717.121H1350.26l-3.695-15.787-3.633-12.573h20.9a1.724,1.724,0,0,1,2.283,2.283v20.578a5.5,5.5,0,0,1-5.5,5.5" transform="translate(13755.183 11123.94)" fill="#b9a7d0"/>
    <path id="Path_11083" data-name="Path 11083" d="M1360.5,718.953a5.506,5.506,0,0,1-3.568-5.153V693.223a5.5,5.5,0,0,1,5.5-5.5h34.544a5.5,5.5,0,0,1,5.149,3.567,5.479,5.479,0,0,0-1.933-.35h-34.543a5.5,5.5,0,0,0-5.5,5.5v20.58a5.479,5.479,0,0,0,.351,1.932" transform="translate(13784.614 11121.762)" fill="#c4b7d9"/>
    <path id="Path_11084" data-name="Path 11084" d="M1394.8,717.121h-34.544a5.542,5.542,0,0,1-1.933-.347,5.474,5.474,0,0,1-.351-1.933V694.26a5.5,5.5,0,0,1,5.5-5.5h34.544a1.724,1.724,0,0,1,2.284,2.283v20.578a5.5,5.5,0,0,1-5.5,5.5" transform="translate(13786.795 11123.94)" fill="#b9a7d0"/>
    <path id="Path_11085" data-name="Path 11085" d="M1318.086,735.314a5.5,5.5,0,0,1-3.568-5.15V709.587a5.5,5.5,0,0,1,5.5-5.5h5.817c-.021,1.163-.041,2.24-.059,3.217h-2.537a5.5,5.5,0,0,0-5.5,5.5v20.577a5.473,5.473,0,0,0,.347,1.933m41.626-27.663a5.517,5.517,0,0,0-1.929-.347h-9.971l-.043-3.217h6.794a5.5,5.5,0,0,1,5.15,3.565" transform="translate(13695.449 11156.162)" fill="#c4b7d9"/>
    <path id="Path_11086" data-name="Path 11086" d="M1352.379,733.485h-6.363l-.388-28.361h9.971a1.722,1.722,0,0,1,2.28,2.283v20.577a5.5,5.5,0,0,1-5.5,5.5m-26.915,0h-7.628a1.722,1.722,0,0,1-2.28-2.283V710.624a5.5,5.5,0,0,1,5.5-5.5h2.537c-.028,1.728-.05,3.146-.056,4.176-.031,3.44.769,12.716,1.927,24.185" transform="translate(13697.631 11158.343)" fill="#b9a7d0"/>
    <path id="Path_11087" data-name="Path 11087" d="M1339.293,735.314a5.5,5.5,0,0,1-3.568-5.15V709.587a5.581,5.581,0,0,1,.106-1.076c1.073,4.262,2.121,8.246,3.111,11.727v13.144a5.474,5.474,0,0,0,.351,1.933m41.626-27.663a5.517,5.517,0,0,0-1.932-.347h-8.336l-.751-3.217h5.869a5.5,5.5,0,0,1,5.15,3.565" transform="translate(13740.031 11156.162)" fill="#c4b7d9"/>
    <path id="Path_11088" data-name="Path 11088" d="M1342.65,733.485h-3.6a1.724,1.724,0,0,1-2.284-2.283V718.057a79.665,79.665,0,0,0,4.011,11.729c.472.94,1.107,2.19,1.877,3.7m32.41-.2-6.59-28.159h8.336a1.723,1.723,0,0,1,2.283,2.283v20.577a5.5,5.5,0,0,1-4.029,5.3" transform="translate(13742.212 11158.343)" fill="#b9a7d0"/>
    <path id="Path_11089" data-name="Path 11089" d="M1318.086,751.677a5.5,5.5,0,0,1-3.568-5.15V725.95a5.5,5.5,0,0,1,5.5-5.5h9.658q.176,1.605.353,3.217h-6.79a5.5,5.5,0,0,0-5.5,5.5v20.577a5.449,5.449,0,0,0,.347,1.933m41.626-27.66a5.45,5.45,0,0,0-1.929-.35H1348.5l-.044-3.217h6.1a5.5,5.5,0,0,1,5.15,3.567" transform="translate(13695.449 11190.561)" fill="#c4b7d9"/>
    <path id="Path_11090" data-name="Path 11090" d="M1352.379,749.848h-5.67l-.388-28.361h9.279a1.723,1.723,0,0,1,2.28,2.283v20.577a5.5,5.5,0,0,1-5.5,5.5m-21.309,0h-13.234a1.722,1.722,0,0,1-2.28-2.283V726.987a5.5,5.5,0,0,1,5.5-5.5h6.79c1.108,10.042,2.259,20.084,3.224,28.361" transform="translate(13697.631 11192.742)" fill="#b9a7d0"/>
    <path id="Path_11091" data-name="Path 11091" d="M1339.293,751.681a5.507,5.507,0,0,1-3.568-5.153V725.95a5.5,5.5,0,0,1,5.5-5.5h13.492q.824,1.591,1.666,3.217h-11.941a5.5,5.5,0,0,0-5.5,5.5v20.577a5.483,5.483,0,0,0,.351,1.936" transform="translate(13740.031 11190.561)" fill="#c4b7d9"/>
    <path id="Path_11092" data-name="Path 11092" d="M1368.914,749.848h-29.868a5.549,5.549,0,0,1-1.933-.347,5.482,5.482,0,0,1-.351-1.936V726.987a5.5,5.5,0,0,1,5.5-5.5H1354.2c4.88,9.428,10.228,19.73,14.711,28.361" transform="translate(13742.212 11192.742)" fill="#b9a7d0"/>
    <path id="Path_11093" data-name="Path 11093" d="M1396.976,786.427h-34.544a5.5,5.5,0,0,1-5.5-5.5V709.584a5.5,5.5,0,0,1,5.5-5.5h34.544a5.5,5.5,0,0,1,5.5,5.5v71.343a5.5,5.5,0,0,1-5.5,5.5Z" transform="translate(13784.614 11156.162)" fill="#ff9b01"/>
    <path id="Path_11094" data-name="Path 11094" d="M1360.149,784.144V712.8a5.5,5.5,0,0,1,5.5-5.5h34.543a5.487,5.487,0,0,1,1.921.363,5.487,5.487,0,0,0-5.137-3.58h-34.544a5.5,5.5,0,0,0-5.5,5.5v71.339a5.491,5.491,0,0,0,3.58,5.137,5.478,5.478,0,0,1-.363-1.92Z" transform="translate(13784.614 11156.162)" fill="#f9bf04"/>
    <path id="Path_11095" data-name="Path 11095" d="M1449.269,883.313H1436.8s-3.542-6.806-8.5-16.352h6.22a5.5,5.5,0,0,0,5.5-5.5v-17.7l9.254,39.554m-89.168,0H1346.51s-.8-6.6-1.936-16.352h15.307l.22,16.352m78.342-46.283a146.674,146.674,0,0,1-7.145-4.864h-21.052c-3.146-6.081-6.022-11.649-8.237-15.968h31.559l4.874,20.832m-79.036-4.864h-18.784c-.6-5.476-1.179-10.889-1.7-15.968h20.267l.217,15.968m31.954-46.339c-6.316-25.11-13.39-59.988-13.39-59.988l-4.142,11.46a31.868,31.868,0,0,0-8.321-6.661h-27.554c.152-6.174.282-11.314.36-14.422h70.2l4.17,14.422h-15.927a5.5,5.5,0,0,0-5.5,5.5v20.577a17.512,17.512,0,0,0,8.717,8.717h21.719l3.738,15.97h-28.674a5.5,5.5,0,0,0-5.395,4.424m-32.645-4.424h-21.933c.083-4.353.205-9.909.341-15.97h26.546l-4.982,13.8.028,2.169M1329.178,713h-14.255l-5.612-14.764V668.919l16.345-1.61a5.542,5.542,0,0,0-.192,1.443l3.22,25.882v16.082a5.492,5.492,0,0,0,.493,2.28" transform="translate(13684.504 11078.846)" fill="#7464ad"/>
    <path id="Path_11096" data-name="Path 11096" d="M1395.383,697.7h-70.2c.053-2.05.084-3.22.084-3.22h-9.22a5.489,5.489,0,0,1-.493-2.28V676.117l2.28,18.362h76.616l.931,3.22" transform="translate(13697.631 11097.362)" fill="#5e4ba1"/>
    <path id="Path_11097" data-name="Path 11097" d="M1344.822,720.1h-26.546q.038-1.587.075-3.217h27.634l-1.163,3.217m7.34-20.323v-8.972a5.538,5.538,0,0,0-.347-1.933,5.514,5.514,0,0,1,3.167,3.093l-2.82,7.811" transform="translate(13703.351 11124.179)" fill="#5e4ba1"/>
    <path id="Path_11098" data-name="Path 11098" d="M1363.743,701.355h-21.719a5.5,5.5,0,0,1-5.15-3.565,5.545,5.545,0,0,0,1.933.347h24.185l.751,3.217" transform="translate(13742.448 11142.926)" fill="#5e4ba1"/>
    <path id="Path_11099" data-name="Path 11099" d="M1339.346,717.483h-20.267c-.112-1.089-.223-2.165-.329-3.217H1339.3l.043,3.217" transform="translate(13704.347 11177.562)" fill="#5e4ba1"/>
    <path id="Path_11100" data-name="Path 11100" d="M1371.87,717.62H1340.31c-.6-1.169-1.154-2.246-1.65-3.217H1369.6a5.487,5.487,0,0,0,1.471-.2l.8,3.419" transform="translate(13746.201 11177.425)" fill="#5e4ba1"/>
    <path id="Path_11101" data-name="Path 11101" d="M1336.239,733.846h-15.307c-.121-1.039-.248-2.11-.375-3.217H1336.2l.043,3.217" transform="translate(13708.144 11211.961)" fill="#5e4ba1"/>
    <path id="Path_11102" data-name="Path 11102" d="M1355.018,752.827h-6.22c-.54-1.039-1.1-2.116-1.672-3.217h4.675a5.5,5.5,0,0,0,5.5-5.5V723.533a5.478,5.478,0,0,0-.35-1.933,5.487,5.487,0,0,1,1.995,1.3l1.573,6.729v17.7a5.5,5.5,0,0,1-5.5,5.5" transform="translate(13763.999 11192.979)" fill="#5e4ba1"/>
    <path id="Path_11103" data-name="Path 11103" d="M1317.738,695.132l-3.22-25.882a5.547,5.547,0,0,1,.192-1.443l7.442-.735a5.5,5.5,0,0,0-4.414,5.395v22.665" transform="translate(13695.449 11078.348)" fill="#927fbb"/>
    <path id="Path_11104" data-name="Path 11104" d="M1394.452,713.565h-76.616l-2.28-18.362V672.538a5.5,5.5,0,0,1,4.414-5.395l1.086-.105,69.31,32.4,4.086,14.131" transform="translate(13697.631 11078.275)" fill="#8670b4"/>
    <path id="Path_11105" data-name="Path 11105" d="M1351.306,691.29a5.481,5.481,0,0,0-1.933-.35h-30.855q.042-1.647.08-3.217h27.554a5.507,5.507,0,0,1,5.153,3.567" transform="translate(13703.858 11121.762)" fill="#927fbb"/>
    <path id="Path_11106" data-name="Path 11106" d="M1345.935,717.121H1318.3c.214-9.39.462-19.65.676-28.361h30.855a5.48,5.48,0,0,1,1.933.35,5.543,5.543,0,0,1,.347,1.933v8.972l-6.177,17.106" transform="translate(13703.399 11123.94)" fill="#8670b4"/>
    <path id="Path_11107" data-name="Path 11107" d="M1339.293,718.953a5.506,5.506,0,0,1-3.568-5.153V693.223a5.5,5.5,0,0,1,5.5-5.5h15.927l.93,3.217h-13.64a5.5,5.5,0,0,0-5.5,5.5v20.58a5.473,5.473,0,0,0,.351,1.932" transform="translate(13740.031 11121.762)" fill="#927fbb"/>
    <path id="Path_11108" data-name="Path 11108" d="M1363.23,717.121h-24.185a5.545,5.545,0,0,1-1.933-.347,5.474,5.474,0,0,1-.351-1.933V694.26a5.5,5.5,0,0,1,5.5-5.5h13.64l3.633,12.573,3.694,15.787" transform="translate(13742.212 11123.94)" fill="#8670b4"/>
    <path id="Path_11109" data-name="Path 11109" d="M1340.182,707.3h-22.035c.019-.977.038-2.054.059-3.217h21.933l.043,3.217" transform="translate(13703.078 11156.162)" fill="#927fbb"/>
    <path id="Path_11110" data-name="Path 11110" d="M1340.609,733.485h-20.553c-1.157-11.469-1.957-20.745-1.926-24.185.006-1.03.028-2.448.056-4.176h22.036l.388,28.361" transform="translate(13703.041 11158.343)" fill="#8670b4"/>
    <path id="Path_11111" data-name="Path 11111" d="M1338.87,720.238c-.99-3.481-2.038-7.464-3.111-11.727a5.5,5.5,0,0,1,5.395-4.424h28.674l.75,3.217h-26.208a5.5,5.5,0,0,0-5.5,5.5v7.433" transform="translate(13740.104 11156.162)" fill="#927fbb"/>
    <path id="Path_11112" data-name="Path 11112" d="M1373.589,733.485H1342.65c-.769-1.508-1.405-2.758-1.877-3.7a79.665,79.665,0,0,1-4.011-11.729v-7.433a5.5,5.5,0,0,1,5.5-5.5h26.208l6.59,28.159a5.49,5.49,0,0,1-1.471.2" transform="translate(13742.212 11158.343)" fill="#8670b4"/>
    <path id="Path_11113" data-name="Path 11113" d="M1338.232,723.667h-18.474l-.353-3.217h18.784l.044,3.217" transform="translate(13705.721 11190.561)" fill="#927fbb"/>
    <path id="Path_11114" data-name="Path 11114" d="M1338.38,749.848h-15.639c-.965-8.277-2.116-18.319-3.224-28.361h18.474l.388,28.361" transform="translate(13705.961 11192.742)" fill="#8670b4"/>
    <path id="Path_11115" data-name="Path 11115" d="M1368.048,724.017a5.453,5.453,0,0,0-1.933-.35h-22.6q-.842-1.628-1.666-3.217H1362.9a5.5,5.5,0,0,1,5.15,3.567" transform="translate(13752.902 11190.561)" fill="#927fbb"/>
    <path id="Path_11116" data-name="Path 11116" d="M1361.77,749.848h-4.675c-4.482-8.63-9.831-18.933-14.711-28.361h22.6a1.724,1.724,0,0,1,2.283,2.283v20.577a5.5,5.5,0,0,1-5.5,5.5" transform="translate(13754.032 11192.742)" fill="#8670b4"/>
    <path id="Path_11117" data-name="Path 11117" d="M1165.572,694.507l-10.945,113.366,107.518.025-10.4-113.586-86.171.2Z" transform="translate(13359.317 11135.612)" fill="#ff9b01"/>
    <path id="Path_11118" data-name="Path 11118" d="M1164.831,700.036h0Zm3.394-2.119c-1.5.006-2.727.956-2.727,2.116s1.229,2.1,2.733,2.1h.006c1.5,0,2.73-.953,2.727-2.113s-1.231-2.107-2.733-2.107Zm-4.027,2.119h0c0-1.88,1.8-3.412,4.024-3.419h.006c2.222,0,4.03,1.523,4.036,3.4s-1.8,3.413-4.024,3.419h-.006c-2.222,0-4.033-1.523-4.036-3.4Z" transform="translate(13379.439 11140.458)" fill="#472f92"/>
    <path id="Path_11119" data-name="Path 11119" d="M1181.135,697.888a3.046,3.046,0,0,0-2.156.831,1.8,1.8,0,0,0-.564,1.281c.006,1.16,1.231,2.1,2.733,2.1h.006a3.125,3.125,0,0,0,1.98-.667,1.884,1.884,0,0,0,.744-1.446c-.006-1.16-1.225-2.1-2.73-2.1Zm-4.02,2.119.648,0-.648,0a3.121,3.121,0,0,1,.943-2.209,4.337,4.337,0,0,1,3.077-1.21h.016c2.215,0,4.024,1.52,4.027,3.4a3.137,3.137,0,0,1-1.219,2.457,4.419,4.419,0,0,1-2.8.965h-.006c-2.222,0-4.03-1.523-4.036-3.4Z" transform="translate(13406.595 11140.396)" fill="#472f92"/>
    <path id="Path_11120" data-name="Path 11120" d="M1185.35,723.45c.375,0,.754-.006,1.145-.019,7.362-.245,12.977-2.618,16.687-7.048,6.143-7.337,4.753-17.565,4.691-18a1.3,1.3,0,0,0-2.578.369c.012.1,1.281,9.539-4.12,15.97-3.214,3.828-8.184,5.885-14.77,6.1-6.375.189-11.125-1.465-14.289-4.985-5.739-6.391-4.327-16.892-4.312-17a1.3,1.3,0,1,0-2.577-.369c-.069.478-1.607,11.786,4.942,19.094,3.5,3.9,8.606,5.879,15.182,5.879Z" transform="translate(13381.17 11141.822)" fill="#472f92"/>
    <path id="Path_11121" data-name="Path 11121" d="M1139.685,614.095c4.16,7.185.568,17,4.765,24.167,1.682,2.867,4.526,5.122,5.336,8.345a7.275,7.275,0,0,1-10.464,8.193,8.876,8.876,0,0,0-1.616-.8c-2.075-.608-3.955,1.235-5.739,2.457a8.769,8.769,0,0,1-7.557,1.334c-3.223-1.08-5.214-4.327-6.291-7.554-3-9.015-.869-18.887,1.9-27.976,1.387-4.542,3.434-9.579,7.889-11.227" transform="translate(13279.501 10960.539)" fill="#3d228c"/>
    <path id="Path_11122" data-name="Path 11122" d="M1225.581,657.3c.068,1,1.592,1.858.577,3.962-2.259,4.691-9.3,11.19-17.717,8.2-.366.13-46.509,26.8-50.064,26.8s-27.771-22.916-35.691-51.271c-1.89-6.766-1.154-14.723,5.184-18.145,0,0,5.283,1.278,8.714,7.756,5.246,9.9,20.956,42.69,24.436,43.928,4.34-2.892,25.47-9.17,42.582-16.439,3.813-1.663,5.277-3.065,6.633-5.544,1.284-2.51,4.433-8.345,7.11-11.084.915-.937,11.041-6.36,11.041-4.579,0,1.03-2.972,3.76-6.847,6.217a9.27,9.27,0,0,0-3.295,4.585c-.276.546.95.444,2.519.341,2.178-.14,5.013-.282,5.395,1.309.112.391-.611,3.437-.577,3.958" transform="translate(13290.251 10993.785)" fill="#fbaaa5"/>
    <path id="Path_11123" data-name="Path 11123" d="M1127.075,626.577a20.786,20.786,0,0,1,13.78,10.687,43.158,43.158,0,0,1,1.877,4.306c2.457,6.254,5.838,11.913,8.3,18.164-3.363,2.711-7.43,3.959-10.855,5.234a23.132,23.132,0,0,1-10.1,1.356,5.11,5.11,0,0,1-1.7-.375,5.6,5.6,0,0,1-1.768-1.52q-1.578-1.81-3.072-3.692a10.117,10.117,0,0,1-2.062-3.53,10.722,10.722,0,0,1,.484-5.5l5.119-25.128" transform="translate(13289.197 10993.218)" fill="#5c419c"/>
    <path id="Path_11124" data-name="Path 11124" d="M1127.392,638.942h0" transform="translate(13302.063 11019.21)" fill="#d07aa1"/>
    <path id="Path_11125" data-name="Path 11125" d="M1126.044,655.32c-.481,0-.962-.015-1.443-.043l-.019-.028.785-13.188a26.3,26.3,0,0,1-1.179-7.486,3.807,3.807,0,0,1,.344-1.927,1.571,1.571,0,0,1,1.278-.807,1.017,1.017,0,0,1,.382.071,2.144,2.144,0,0,1,.791.673c4.929,5.879,10,12.173,11.581,19.606-1.52.614-3.034,1.154-4.437,1.675h0l-.081.031h0a23.006,23.006,0,0,1-8,1.421" transform="translate(13295.326 11004.285)" fill="#4d3596"/>
    <path id="Path_11126" data-name="Path 11126" d="M1140.144,623.99s-.177,8.258,1.092,8.8a32.38,32.38,0,0,0,5.336,1.65l.083,17.087-22.783-3.434-15.672-8.724s16.29-5.4,16.433-7.023-.9-10.765-.9-10.765" transform="translate(13261.716 10982.709)" fill="#fbaaa5"/>
    <path id="Path_11127" data-name="Path 11127" d="M1110.376,724.057l-.012.065c-6.232,29.552-3.263,70.151-4.653,92.4.326.09,8.469,1.111,8.469,1.111s19.278-93.772,22.777-111.731a25.319,25.319,0,0,0,.444-3.478c.841-13.513-11.339-14.2-18.2-3.031a46.74,46.74,0,0,0-3.14,6.031c-.388.881-.748,1.775-1.123,2.727l-.006.031a87.838,87.838,0,0,0-3.021,9.434l-.072.341c-.285.946-.518,1.9-.748,2.866l-.046.217c-.239.993-.45,1.989-.667,3.019Z" transform="translate(13256.481 11129.903)" fill="#fbaaa5"/>
    <path id="Path_11128" data-name="Path 11128" d="M1143.391,680.667c-.23,2.445-1.532,14.081-3.1,27.805-1.337,11.54-2.8,24.548-3.943,34.851-.847,7.725-1.467,13.886-1.728,16.786a37.567,37.567,0,0,1-.685,4.988v.065c-2.935,13.495-12.257,14.28-17.928,11.149a11.341,11.341,0,0,1-2.153-1.467,7.244,7.244,0,0,1-2.413-3.977v-.031c-.357-2.773-.717-6.555-1.042-11.053v-.065l-.031-.065-.034-.1c-.682-8.77-1.272-20.05-1.793-31.035-.617-13.5-1.012-26.506-1.108-33.839-.034-.425-.034-.816-.065-1.207-.1-22.491,20.572-36.9,33.415-29.924l.456.227.49.295c1.468.977,1.955,4.334,1.989,8.181.065,2.8-.13,5.869-.326,8.413Z" transform="translate(13259.966 11067.228)" fill="#fbaaa5"/>
    <path id="Path_11129" data-name="Path 11129" d="M1112.267,699.22l-1.573-5.891.016.071a94.23,94.23,0,0,1-1.955,20.571l-.071.341c-.226.931-.462,1.92-.748,2.867l-.047.217a16.019,16.019,0,0,0-.667,3.019l-.012.065c-.019,2.671,5.671-9.192,6.974-11.965.161-.354.26-.555.26-.555l-1.539-6.18-.639-2.559Z" transform="translate(13259.635 11133.546)" fill="#fbaaa5"/>
    <path id="Path_11130" data-name="Path 11130" d="M1123.211,729.262v.065c-.589,30.942,8.966,67.325,11.494,89.8.307.009,7.805-1,7.805-1s1.427-94.8,1.526-113.53a28.283,28.283,0,0,0-.189-3.571c-1.535-13.647-12.607-11.308-16.885,1.508a54.721,54.721,0,0,0-1.8,6.775c-.2.974-.372,1.951-.546,2.991l0,.034c-.521,3.186-.893,6.577-1.117,10.132l-.007.36c-.1,1.011-.142,2.023-.186,3.034l-.007.229c-.046,1.046-.065,2.091-.087,3.171Z" transform="translate(13293.217 11130.345)" fill="#fbaaa5"/>
    <path id="Path_11131" data-name="Path 11131" d="M1141.153,780.425a8.146,8.146,0,0,1-2.175-.946,6.217,6.217,0,0,1-2.845-3.354l0-.034c-.813-2.665-1.781-6.387-2.855-10.78l-.021-.071-.047-.112c-2.088-8.534-4.566-19.609-6.878-30.387-2.839-13.265-5.413-26.115-6.735-33.408-.1-.394-1.247-5.705-1.324-6.1-3.964-22.6,13.665-37.33,26.478-33.024l.5.174c2.575,1.033,3.289,10.095,3.869,16.219s4.936,69.593,6.021,81.068a45.785,45.785,0,0,1,.224,5.144c-.307,14.19-8.575,17.3-14.218,15.608Z" transform="translate(13281.705 11066.563)" fill="#fbaaa5"/>
    <path id="Path_11132" data-name="Path 11132" d="M1125.134,700.386l-2.416-5.469.025.068a105.175,105.175,0,0,1,1.734,20.943l-.007.36c-.046.98-.089,2.026-.186,3.034l-.007.229a18.673,18.673,0,0,0-.087,3.17v.065c.437,2.662,3.543-10.55,4.244-13.634.084-.391.139-.617.139-.617l-2.432-5.764-1.009-2.385Z" transform="translate(13292.238 11136.884)" fill="#fbaaa5"/>
    <path id="Path_11133" data-name="Path 11133" d="M1121.007,655.622s-16.591,21.077-14.888,42.256c.707,8.813,1.8,16.581,2.8,25.451.146,1.278,2.135,19.9,1.573,19.92,0,0,34.187,10.563,67.214-3.276,0-2.258,2.643-45.6-15.2-86.931a287.552,287.552,0,0,1-41.5,2.581Z" transform="translate(13257.085 11048.85)" fill="#3e228c"/>
    <path id="Path_11134" data-name="Path 11134" d="M1171.395,664.765c-.13,6.037-3.344,9.713-7.951,14.8-.583.906-2.014,14.364-2.5,23.314-.255,4.656,1.734,7.582,0,7.964-6.633,5.785-30.532,10.47-41.5,2.575,1.148-9.732-3.211-31.171-6.152-42.073-.459-1.678-.862-3.1-1.228-4.188-2.739-8.28-7.684-34.832-4.024-35.989.729-.229,1.861-.53,3.174-.924,5.729-1.731,14.2-4.7,14.2-4.7s4.967,14.692,17.878,16.467c7.048-2.9,6.427-11.816,6.344-15.914,2.305.636,3.32,1.269,10.464,3.384,2,2.888.273,8.913,3.508,17.9.807,2.234,7.945,10.033,7.787,17.385Z" transform="translate(13258.653 10991.049)" fill="#5c419c"/>
    <path id="Path_11135" data-name="Path 11135" d="M1151.609,613.539s1.306,15.961-1.418,24.328c-2.016,6.2-10.3,11.978-17.221,11.9-19.06,0-22.479-25.888-22.38-27.141s28.113-12.118,28.113-12.118l12.906,3.031Z" transform="translate(13266.738 10959.436)" fill="#fbaaa5"/>
    <path id="Path_11136" data-name="Path 11136" d="M1155.633,743.269c-6.785,1.222-14.035-.686-17.006-.171-2.457.419-8.767,2.02-11.128-.1s-1.982-9.614.732-10.612a10.1,10.1,0,0,0,1.762.425,18.551,18.551,0,0,0,8.031-.657c5.163,2.125,5.355,3.053,11.221,4.238a38.1,38.1,0,0,1,7.476,2.268c2.531,1.157,2.733,3.931-1.089,4.613Z" transform="translate(13299.006 11215.159)" fill="#3d228c"/>
    <path id="Path_11137" data-name="Path 11137" d="M1127.78,749.8c-6.8-1.142-11.1-4.9-14.072-5.42-2.453-.437-8.637-1.641-9.282-4.173-.484-1.886,1.384-9.719,4.276-9.741a9.909,9.909,0,0,0,1.513,1,18.6,18.6,0,0,0,7.781,2.094c4.142,3.745,4.008,4.681,9.13,7.778a38.094,38.094,0,0,1,6.27,4.663c1.992,1.945-1.784,4.452-5.615,3.8Z" transform="translate(13253.625 11211.615)" fill="#3d228c"/>
    <path id="Path_11138" data-name="Path 11138" d="M1079.972,650.128l6.242-7.427,38.083,34.053s18.6-24.75,23.707-32.478c5.624-8.5,10.694-15.765,18.917-17.186,1.9,1.169-.639,31.689-1.629,32.428-11.491,8.6-33.849,36.324-40.959,37.767-8.211,1.663-44.362-47.157-44.362-47.157Z" transform="translate(13202.375 10994.296)" fill="#fbaaa5"/>
    <path id="Path_11139" data-name="Path 11139" d="M1129.554,626.655s-7.783.1-11.128,2.854S1099.1,657.6,1099.1,657.6a11.255,11.255,0,0,0,4.2,8.8,23.322,23.322,0,0,0,11.513,4.985s8.022-7.985,12.545-11.618c2.817-2.265,3.1,3.338,3.1,3.338L1144.6,649.3l-15.046-22.64Z" transform="translate(13242.558 10993.381)" fill="#5c419c"/>
    <path id="Path_11140" data-name="Path 11140" d="M1112.552,673.272c-.425-.227-.841-.471-1.244-.714-2.184-1.3-4.191-2.674-5.109-5.156-1.325-3.577-1.961-9.065-.109-12.533,1.256-2.349,3.614-3.884,5.23-6,2.234-2.925,2.894-6.747,3.083-10.42s-.031-7.4.742-10.994c1.318-6.152,3.071-12.009,7.811-15.97,7.591-6.347,22.808-10.107,31.085-3.031,1.5,1.29,1.8,2.32,3.831,2.519a14.946,14.946,0,0,1,6.946,2.029c2.714,1.57,6.009,3.782,5.628,7.346-.266,2.466-3.068,6.372-5.178,7.536a6.282,6.282,0,0,1-2.925.655c-3.226.062-5.9-2.035-9.068-1.7a6.028,6.028,0,0,0-3.974,2.206c-1.142,1.408-.986,3.369-2.317,4.687-2.137,2.113-5.451,1.933-7.982,3.307a2.677,2.677,0,0,0-1.092.9,2.87,2.87,0,0,0-.276,1.356q-.075,2-.146,4c-1.257-.552-1.387-2.339-2.423-3.239a2.876,2.876,0,0,0-3.63.236,6.067,6.067,0,0,0-1.75,3.478,10,10,0,0,0,.7,4.774c.828,2.718,3.158,5.165,5.038,3.369,1.365,2.007-.127,5.357-.177,7.625-.04,1.8-.006,5.367,1.675,6.549,1.548,1.089,4,.264,4.1,3.065.083,2.562-2.482,4.567-5.026,4.88s-5.063-.583-7.523-1.312-5.15-1.3-7.542-.369c-1.448.561-2.7,1.65-4.234,1.9a6.633,6.633,0,0,1-4.145-.984Z" transform="translate(13254.858 10947.073)" fill="#3d228c"/>
    <path id="Path_11141" data-name="Path 11141" d="M1104.709,650.272s-8.953-7.176-9.564-9.139-.742-4.067-1.48-5.987a11.209,11.209,0,0,0-6.211-6.18c-2.243-.925-1.145-1.685-3.549-1.219-3.626.7-5.348,4.256-6.8,7.036-6.182,11.847,10.75,14.093,11.345,14.115,1.235.05,7.536,7.191,7.536,7.191" transform="translate(13193.503 10995.379)" fill="#fbaaa5"/>
    <path id="Path_11142" data-name="Path 11142" d="M1076.481,649l6.13,4.092a1.69,1.69,0,0,0,2.386-.54l13.466-22.566-7.982-4.5-14.456,21.154a1.689,1.689,0,0,0,.456,2.358Z" transform="translate(13193.456 10990.932)" fill="#7969b0"/>
    <path id="Path_11143" data-name="Path 11143" d="M1070.7,626.751l2.11,1.436,8.534-12.431-2.113-1.439c-3-2.047-7.343-.922-9.7,2.513s-1.834,7.874,1.169,9.921Z" transform="translate(13177.331 10965.295)" fill="#c8bcdb"/>
    <path id="Path_11144" data-name="Path 11144" d="M1066.4,650.567l39.244,5.956,8.965-13.061-19.8-34.286-28.4,41.391Z" transform="translate(13173.837 10956.636)" fill="#c8bcdb"/>
    <path id="Path_11145" data-name="Path 11145" d="M1067.206,631.966l36.734,5.413,3.573-5.206L1076.6,618.282l-9.391,13.684Z" transform="translate(13175.537 10975.778)" fill="#c0b1d6"/>
    <path id="Path_11146" data-name="Path 11146" d="M1085.5,635.449h0c2.1,1.43,5.134.645,6.785-1.756l1.591-2.323c1.647-2.4,1.281-5.507-.816-6.937s-5.137-.645-6.785,1.756l-1.594,2.323c-1.647,2.4-1.281,5.506.819,6.937Z" transform="translate(13210.112 10987.208)" fill="#c8bcdb"/>
    <path id="Path_11147" data-name="Path 11147" d="M1086.28,624.854l-1.591,2.318c-1.654,2.407-1.281,5.51.816,6.94s5.134.648,6.785-1.756l1.592-2.321.325-.546a4.56,4.56,0,1,1-7.535-5.134l-.391.5Z" transform="translate(13210.115 10988.545)" fill="#c0b1d6"/>
    <path id="Path_11148" data-name="Path 11148" d="M1066.72,653.261h0a2.933,2.933,0,0,0,3.986-1.03L1097.625,613a2.726,2.726,0,1,0-4.464-3.04l-26.918,39.228a2.907,2.907,0,0,0,.478,4.073Z" transform="translate(13172.235 10955.227)" fill="#a795c7"/>
    <path id="Path_11149" data-name="Path 11149" d="M1097.832,608.883l-22.417,32.67a2.937,2.937,0,0,1-3.986,1.033,2.428,2.428,0,0,1-.689-.748l-4.5,6.558a2.727,2.727,0,1,0,4.464,3.043l26.918-39.231a3.09,3.09,0,0,0,.208-3.326Z" transform="translate(13172.235 10956.02)" fill="#7969b0"/>
    <path id="Path_11150" data-name="Path 11150" d="M1082.4,640.527l2.54,1.731c3.748,2.556,9.17,1.151,12.111-3.137l2.526-3.676c2.941-4.287,2.286-9.834-1.461-12.387l-2.541-1.731c-3.748-2.556-9.17-1.151-12.111,3.137l-2.526,3.676c-2.941,4.287-2.286,9.834,1.462,12.387Z" transform="translate(13200.543 10979.499)" fill="#a795c7"/>
    <path id="Path_11151" data-name="Path 11151" d="M1082.695,622.594l-3.778,5.507a2.8,2.8,0,0,0,.462,3.921l11.816,8.053a2.821,2.821,0,0,0,3.834-.993l3.779-5.506a2.82,2.82,0,0,1-3.834.993l-11.817-8.054a2.8,2.8,0,0,1-.462-3.921Z" transform="translate(13198.929 10984.844)" fill="#7969b0"/>
    <path id="Path_11152" data-name="Path 11152" d="M1076.492,639.74a12.345,12.345,0,0,1,2.156-9.223,19.841,19.841,0,0,1,2.2-2.37,3.043,3.043,0,0,1,1.325-.875,4.177,4.177,0,0,1,2.87.649,5.225,5.225,0,0,1,2.352,2.336c.654,1.607-.459,2.944-1.725,3.747l-.317.313.217.729a5.307,5.307,0,0,1,.909,3.062,1.793,1.793,0,0,1-2.106,1.576c-.462-.074-1.08-.255-1.232.1l-.009.4a3.279,3.279,0,0,1-.714,2.584l-.568.357-.6-.081a8.08,8.08,0,0,1-2.1-.931" transform="translate(13194.757 10994.53)" fill="#fbaaa5"/>
    <path id="Path_11153" data-name="Path 11153" d="M1087.034,641.657a46.848,46.848,0,0,1-.732-4.815,10.949,10.949,0,0,0-5.178-9,1.312,1.312,0,0,0-.841-.242.927.927,0,0,0-.685.807,2.491,2.491,0,0,0,.164,1.111c.363,1.138,1.979,3.276,1.479,4.449a13.316,13.316,0,0,0-1.278,5.581c.056,1.7.85,4.467,2.867,4.746" transform="translate(13201.555 10995.342)" fill="#fbaaa5"/>
    <path id="Path_11154" data-name="Path 11154" d="M1067.033,604.3l7.9,18.617a1.163,1.163,0,1,0,2.14-.909l-7.9-18.614a1.162,1.162,0,0,0-2.141.906" transform="translate(13174.977 10942.981)" fill="#c8bcdb"/>
    <path id="Path_11155" data-name="Path 11155" d="M1062.093,610.113l16.178,12.127a1.163,1.163,0,0,0,1.4-1.861l-16.181-12.127a1.162,1.162,0,1,0-1.393,1.861" transform="translate(13163.805 10954.201)" fill="#c8bcdb"/>
    <path id="Path_11156" data-name="Path 11156" d="M1059.312,617.607l20.124,1.976a1.163,1.163,0,1,0,.227-2.314l-20.124-1.976a1.163,1.163,0,1,0-.226,2.314" transform="translate(13156.734 10969.483)" fill="#c8bcdb"/>
    <path id="Path_11157" data-name="Path 11157" d="M1291.728,569.292s-7.229-5.1-7.486-7.241-5.3-10.821-6.908-12.549-10.086-4.663-11.891-4.923-12.18.623-10.889,2.038,8,.9,9.294,1.675l1.291.773s-1.291,1.75-.775,2.81-2.215,2.693-1.182,4.5-.419,1.681.506,3.567c1.526,3.115,5.432,4.849,6.465,4,.776,1.843,3.738,5.6,6.515,5.345s9.524,6.065,9.524,6.065l5.538-6.059" transform="translate(13569.154 10820.742)" fill="#ede2b1"/>
    <path id="Path_11158" data-name="Path 11158" d="M1320.331,540.819c.245,4.855-.1,13.309,1.29,14.562s5.876,1.058,5.876,1.058-16.039,20.279-17.471,19.166-20.4-16.572-16.141-17.372,8.435-.627,8.314-2.832-.242-4.414-.363-6.62l18.5-7.96" transform="translate(13650.763 10812.932)" fill="#f4eabb"/>
    <path id="Path_11159" data-name="Path 11159" d="M1346.639,638.911s-31.3,3.552-38.5,3.7-6.847-3.614-6.847-3.614c-.366-7.929-1.709-26.614-3.2-32.946-1.39-5.913-2.007-8.1-3.217-13.715-2.693-12.486-2.575-14.872-5.426-30.284l18.691-15.024s1.936,5.749,9.77,5.848c10.473.133,13.73-7.2,13.73-7.2l25.494,16.926,2.392,41.173-3.05,33.908-9.837,1.228" transform="translate(13642.748 10823.143)" fill="#ff9b01"/>
    <path id="Path_11161" data-name="Path 11161" d="M1279.476,614.664a68.266,68.266,0,0,0,1.868,8.351c.828,2.125,7.811.164,8.271-1.21s-2.2-11.5-2.2-11.5" transform="translate(13621.782 10959.015)" fill="#f4eabb"/>
    <path id="Path_11162" data-name="Path 11162" d="M1302.844,616.267c.605,2.293,1.368,6.7,1.368,6.7l-6.98,3.037-1.145-1.073a12.907,12.907,0,0,1-3.872,3.087,28.989,28.989,0,0,1-6.754,1.874c-6.093.655-10.575-.49-10.935-1.334-1.514-3.53,6.571-4.477,8.175-4.9a10.709,10.709,0,0,0,7.656-7.672c.357-1.849-.1-2.175.931-2.116a2.447,2.447,0,0,1,1.746.819,4.408,4.408,0,0,0,4.957,1.151,5.271,5.271,0,0,0,2.473-2.06,3.047,3.047,0,0,1,2.379,2.488Z" transform="translate(13610.981 10966.312)" fill="#180063"/>
    <path id="Path_11163" data-name="Path 11163" d="M1330.539,607.58a118.25,118.25,0,0,1-35.626.844c1.542,4.421,5.321,10.082,6.76,16.3,4.752,20.549,6.4,48.153,7.61,65.228,0,0-2.28,4.383-9.6,1.045-10.926-26.986-30-81.679-29.828-93.545.227-15.1,37.928-18.753,65.56-22.476l-4.88,32.6" transform="translate(13601.562 10884.745)" fill="#260571"/>
    <path id="Path_11164" data-name="Path 11164" d="M1375.9,577.667c8.69,6.344-48.163,30.244-48.163,30.244a94.419,94.419,0,0,1-18.632,1.778,13.582,13.582,0,0,1-1.387-3.524c-.335-1.65-.155-3.369-.443-5.026a11.686,11.686,0,0,0-5.68-7.656,25.566,25.566,0,0,0-9.291-3.009c-7.688-1.241-21.108-.372-21.108-.372,17.087-12.6,52.047-14.242,68.33-15.278,2.088,3.44,17.137,3.139,27.222,2.841,4.972-.149,8.739-.3,9.151,0" transform="translate(13604.367 10884.415)" fill="#180063"/>
    <path id="Path_11165" data-name="Path 11165" d="M1285.286,618.313a68.235,68.235,0,0,0,.391,8.55c.447,2.237,7.662,1.517,8.354.242s-.171-11.7-.171-11.7" transform="translate(13633.993 10969.727)" fill="#f4eabb"/>
    <path id="Path_11166" data-name="Path 11166" d="M1309.165,622.869c.2,2.367.187,6.834.187,6.834l-7.4,1.784-.943-1.259a12.892,12.892,0,0,1-4.346,2.37,29,29,0,0,1-6.98.673c-6.111-.409-10.327-2.314-10.538-3.208-.878-3.738,7.247-3.27,8.9-3.406a10.713,10.713,0,0,0,8.869-6.23c.674-1.759.279-2.159,1.288-1.923a2.459,2.459,0,0,1,1.575,1.111,4.4,4.4,0,0,0,4.685,1.992,5.271,5.271,0,0,0,2.792-1.6,3.044,3.044,0,0,1,1.911,2.86Z" transform="translate(13620.946 10976.115)" fill="#180063"/>
    <path id="Path_11168" data-name="Path 11168" d="M1365.517,546.112s-4.471.245-5.342.316a41.081,41.081,0,0,0-11.051,2.091c-5.069,1.877-8.646,6.592-12.771,10.281-3.974,3.549-24.567,23.171-28.408,23.893s-37.559-22.382-37.559-22.382l-8.23,8.233s36.588,33.805,47.5,33.864c5.293.028,34.5-15.347,43.848-21.322l12.018-34.975" transform="translate(13585.371 10824.059)" fill="#ff9b01"/>
    <path id="Path_11169" data-name="Path 11169" d="M1296.91,572.82c-.162-.012-.329-.018-.494-.018H1281.56c11.717-7.219,26.282-18.5,26.282-18.5l1.908,11.367-3.183,1.846c-2.854,1.629-6.177,3.456-9.657,5.3" transform="translate(13626.164 10841.285)" fill="#f77101"/>
    <path id="Path_11170" data-name="Path 11170" d="M1296.582,575.909h-8.938c-12.707-9.673-25.488-21.483-25.488-21.483l1.6-1.6c2.749,2.113,19.929,15.238,32.828,23.081" transform="translate(13585.371 10838.178)" fill="#f77101"/>
    <path id="Path_11171" data-name="Path 11171" d="M1276.3,613.769h83.749l-15.018-48.953a6.432,6.432,0,0,0-6.152-4.548h-73.344a4.175,4.175,0,0,0-3.992,5.4l14.757,48.1" transform="translate(13583.698 10853.818)" fill="#a795c7"/>
    <path id="Path_11172" data-name="Path 11172" d="M1276.818,613.769H1359.3l-15.015-48.953a6.432,6.432,0,0,0-6.155-4.548h-73.34a4.175,4.175,0,0,0-3.992,5.4l14.385,46.9a1.7,1.7,0,0,0,1.632,1.2" transform="translate(13582.132 10853.818)" fill="#6e55a6"/>
    <path id="Path_11173" data-name="Path 11173" d="M1328.59,629.84l2.345-26.065-2.392-41.173-22.675-15.055,1.052-1.318s-.251.009-.655.009a19.361,19.361,0,0,1-2.615-.164l-.6-.4c10.467.664,17.385,1.967,26.723,6.741a12.874,12.874,0,0,1,4.319,3.2c2.146,2.674,2.265,6.4,2.227,9.825-.223,19.448-4.74,52.1-7.728,64.4" transform="translate(13671.338 10823.143)" fill="#e1b3c5"/>
    <path id="Path_11174" data-name="Path 11174" d="M1305.461,547.278l-2.218-1.474a19.366,19.366,0,0,0,2.615.164c.4,0,.655-.009.655-.009l-1.052,1.318" transform="translate(13671.747 10823.412)" fill="#f88378"/>
    <path id="Path_11175" data-name="Path 11175" d="M1305.651,639.076a53.535,53.535,0,0,1-11.336-1.123c13.917-6.344,19.91-14.652,34.351-20.258,1.179-13.473,1.917-28.224,6.084-47.07l-13.34-24.948h0l.6.4,2.218,1.473L1346.9,562.6l2.392,41.173-2.346,26.065c-.72,2.972-1.353,4.756-1.814,4.883-.959.264-7.269,2.01-15.322,3.992-.977.037-1.989.074-3.028.106-.382-.04-.955-.056-1.685-.056-1.653,0-4.111.084-6.967.171-.735.022-1.5.044-2.284.062h-.357c-2.51,0-5.106-.025-7.762-.087h0a19.945,19.945,0,0,0-2.079.164" transform="translate(13652.978 10823.143)" fill="#f77101"/>
    <path id="Path_11176" data-name="Path 11176" d="M1293.772,579.468l-1.257-4.1a36.008,36.008,0,0,1,5.023.41l.561-.251a53.534,53.534,0,0,0,11.336,1.123c-3.258.382-9.192,1.405-15.663,2.817m25.863-2.894c.782-.018,1.548-.04,2.284-.062,2.857-.087,5.314-.171,6.968-.171.729,0,1.3.016,1.685.056-3.366.105-7.045.174-10.936.177" transform="translate(13649.194 10885.567)" fill="#160047"/>
    <path id="Path_11177" data-name="Path 11177" d="M1297.558,581.962h-.127s-1.629-.23-3.745-.63l-.766-2.488c6.471-1.411,12.405-2.435,15.663-2.817a19.935,19.935,0,0,1,2.079-.165h0c2.655.062,5.252.087,7.761.087h.357c3.89,0,7.57-.071,10.936-.177,1.039-.031,2.051-.068,3.028-.106-11.77,2.9-27.253,6.295-35.188,6.295" transform="translate(13650.045 10886.19)" fill="#21014f"/>
    <path id="Path_11178" data-name="Path 11178" d="M1296.087,581.956c-.779-.146-1.619-.316-2.47-.506l-1.839-5.994c.686-.062,1.387-.087,2.073-.087h.214l1.257,4.1.766,2.488" transform="translate(13647.644 10885.567)" fill="#9870b4"/>
    <path id="Path_11179" data-name="Path 11179" d="M1297.147,581.392c-3.611-.8-7.389-1.973-7.023-3.282.493-1.774,2.733-2.485,5.184-2.711l1.84,5.994" transform="translate(13644.114 10885.626)" fill="#643a95"/>
    <path id="Path_11180" data-name="Path 11180" d="M1310.663,577.943c-1.573-1.979-4.44-2.268-6.968-2.206a51.228,51.228,0,0,0-5.6.447c-.844.115-1.818.313-1.9,1.229s4.1,0,6.3.636a111.277,111.277,0,0,1-12.949.351,3.689,3.689,0,0,0-1.489.152,1.238,1.238,0,0,0-.841,1.135,1.547,1.547,0,0,0,.592.987,8.793,8.793,0,0,0,4.455,1.793c6.6,1.154,13.544.955,19.684-1.737" transform="translate(13638.044 10886.322)" fill="#f4eabb"/>
    <path id="Path_11181" data-name="Path 11181" d="M1334.221,570.273c-.345,20.146-1.775,29.366-1.384,49.512-10.113,2.162-24.114,13.613-38.434,19.988a7.561,7.561,0,0,0,.475,5.24c1.092.4,48.3-11.094,52.056-14.553,3.378-3.115,7.848-40.875,8.125-65.02.038-3.428-.081-7.151-2.227-9.825a12.873,12.873,0,0,0-4.319-3.2c-9.337-4.774-16.256-6.077-26.723-6.744" transform="translate(13652.599 10823.14)" fill="#ff9b01"/>
    <path id="Path_11182" data-name="Path 11182" d="M1285.383,584.8a17.859,17.859,0,0,1-9.378-2.513c-2.516-1.57-4.378-3.887-4.588-6.7l-.016-.471a7.976,7.976,0,0,1,3.984-6.552,16.388,16.388,0,0,1,8.913-2.411,17.874,17.874,0,0,1,9.378,2.513c2.516,1.57,4.377,3.887,4.585,6.7l-1.545.109,1.545-.109.019.469a7.977,7.977,0,0,1-3.983,6.552,16.389,16.389,0,0,1-8.913,2.411m0-3.1h.022a13.318,13.318,0,0,0,7.191-1.908c1.746-1.157,2.58-2.553,2.58-3.955l-.009-.254c-.093-1.477-1.16-3.046-3.139-4.29a14.8,14.8,0,0,0-7.712-2.038h-.04a13.319,13.319,0,0,0-7.191,1.9c-1.746,1.157-2.581,2.553-2.581,3.956l.009.254c.09,1.477,1.157,3.05,3.139,4.29a14.8,14.8,0,0,0,7.712,2.041h.018" transform="translate(13604.807 10866.199)" fill="#8974b5"/>
    <path id="Path_11183" data-name="Path 11183" d="M1288.387,572.1c.192,2.389-3.028,4.324-7.194,4.324s-7.694-1.936-7.886-4.324,3.031-4.328,7.2-4.328,7.694,1.936,7.883,4.328Z" transform="translate(13608.798 10869.584)" fill="#a795c7"/>
    <path id="Path_11186" data-name="Path 11186" d="M1484.727,656.418H1326.208l18.983-14.044V573.811a10.359,10.359,0,0,1,10.358-10.358h129.178a10.358,10.358,0,0,1,10.358,10.358V646.06a10.359,10.359,0,0,1-10.358,10.359" transform="translate(13720.023 10860.515)" fill="#dacde4"/>
    <path id="Path_11187" data-name="Path 11187" d="M1425.3,574.7h-72.444v-6.934H1425.3V574.7" transform="translate(13776.039 10869.574)" fill="#ece4f1"/>
    <path id="Path_11188" data-name="Path 11188" d="M1425.3,578.035h-72.444V571.1H1425.3v6.934" transform="translate(13776.039 10876.592)" fill="#ece4f1"/>
    <path id="Path_11189" data-name="Path 11189" d="M1425.3,581.37h-72.444v-6.93H1425.3v6.93" transform="translate(13776.039 10883.61)" fill="#ece4f1"/>
    <path id="Path_11190" data-name="Path 11190" d="M1425.3,584.623h-72.444v-6.93H1425.3v6.93" transform="translate(13776.039 10890.447)" fill="#ece4f1"/>
    <path id="Path_11191" data-name="Path 11191" d="M1403.376,588.513h-50.523v-6.93h50.523v6.93" transform="translate(13776.039 10898.628)" fill="#ece4f1"/>
    <path id="Path_11192" data-name="Path 11192" d="M1371.356,620.973h-24.5a10.5,10.5,0,0,1-10.5-10.5v-32.2a10.5,10.5,0,0,1,10.5-10.5h24.5a10.5,10.5,0,0,1,10.5,10.5v32.2a10.5,10.5,0,0,1-10.5,10.5Z" transform="translate(13741.345 10869.574)" fill="#ac9fcc"/>
    <path id="Path_11193" data-name="Path 11193" d="M1381.857,592.765H1336.35v-5.714h45.507v5.714" transform="translate(13741.345 10910.123)" fill="#ece4f1"/>
    <path id="Path_11194" data-name="Path 11194" d="M1359.873,589.634h-16.516a2.059,2.059,0,0,1-1.988-1.52l-3.177-11.733a2.06,2.06,0,0,1,1.989-2.6h22.867a2.057,2.057,0,0,1,1.989,2.6l-3.177,11.733a2.057,2.057,0,0,1-1.986,1.52Z" transform="translate(13745.066 10882.233)" fill="#fff"/>
    <path id="Path_11195" data-name="Path 11195" d="M1359.824,596.859h-19.889l-.409-.409.409-.413h19.579l6.921-24.136.394-.3h4.327l.41.409-.41.413h-4.017l-6.921,24.135-.394.3Z" transform="translate(13748.022 10877.649)" fill="#fff"/>
    <path id="Path_11196" data-name="Path 11196" d="M1343.9,582.416a2.406,2.406,0,1,1-2.408-2.4,2.406,2.406,0,0,1,2.408,2.4Z" transform="translate(13747.104 10895.325)" fill="#fff"/>
    <path id="Path_11197" data-name="Path 11197" d="M1349.537,582.416a2.406,2.406,0,1,1-2.407-2.4,2.406,2.406,0,0,1,2.407,2.4Z" transform="translate(13758.954 10895.325)" fill="#fff"/>
    <path id="Path_11198" data-name="Path 11198" d="M1196.425,658.5h201.966L1374.2,640.608v-110.5a13.194,13.194,0,0,0-13.2-13.194H1196.425a13.2,13.2,0,0,0-13.2,13.194V645.3a13.2,13.2,0,0,0,13.2,13.2" transform="translate(13419.443 10762.679)" fill="#dacde4"/>
    <path id="Path_11199" data-name="Path 11199" d="M1281.185,532.351h-92.3v-8.832h92.3v8.832" transform="translate(13431.334 10776.562)" fill="#ece4f1"/>
    <path id="Path_11200" data-name="Path 11200" d="M1281.185,536.6h-92.3v-8.832h92.3V536.6" transform="translate(13431.334 10785.503)" fill="#ece4f1"/>
    <path id="Path_11201" data-name="Path 11201" d="M1281.185,540.857h-92.3v-8.832h92.3v8.832" transform="translate(13431.334 10794.443)" fill="#ece4f1"/>
    <path id="Path_11202" data-name="Path 11202" d="M1281.185,545h-92.3v-8.832h92.3V545" transform="translate(13431.334 10803.155)" fill="#ece4f1"/>
    <path id="Path_11203" data-name="Path 11203" d="M1281.185,549.145h-92.3v-8.832h92.3v8.832" transform="translate(13431.334 10811.868)" fill="#ece4f1"/>
    <path id="Path_11204" data-name="Path 11204" d="M1281.185,556.675h-92.3v-8.832h92.3v8.832" transform="translate(13431.334 10827.697)" fill="#ece4f1"/>
    <path id="Path_11205" data-name="Path 11205" d="M1346.413,561.159H1188.884v-8.832h157.529v8.832" transform="translate(13431.334 10837.125)" fill="#ece4f1"/>
    <path id="Path_11206" data-name="Path 11206" d="M1234.354,591.313h31.218a13.38,13.38,0,0,0,13.38-13.38V536.9a13.38,13.38,0,0,0-13.38-13.38h-31.218a13.38,13.38,0,0,0-13.38,13.38v41.034a13.38,13.38,0,0,0,13.38,13.38Z" transform="translate(13498.796 10776.562)" fill="#c8bcdb"/>
    <path id="Path_11207" data-name="Path 11207" d="M1278.952,555.371h-57.978v-7.278h57.978v7.278" transform="translate(13498.796 10828.223)" fill="#ece4f1"/>
    <path id="Path_11208" data-name="Path 11208" d="M1233,551.384h21.039a2.627,2.627,0,0,0,2.535-1.939l4.045-14.944a2.623,2.623,0,0,0-2.531-3.31h-29.136a2.623,2.623,0,0,0-2.532,3.31l4.045,14.944a2.627,2.627,0,0,0,2.534,1.939Z" transform="translate(13510.043 10792.69)" fill="#fff"/>
    <g id="Group_762" data-name="Group 762" transform="matrix(0.94, 0.342, -0.342, 0.94, 15111.393, 11711.778)">
      <path id="Path_11288" data-name="Path 11288" d="M19.485,43.066q2.955,8.376,5.908,16.751.432-.938.862-1.877C25.34,45.444,24.5,32.7,19.6,21.189,15.746,12.161,8.768,3.937,0,0A36.263,36.263,0,0,1,5.458,9.97c4.9,13.247,4.429,27.766,4.557,42.088q1.574,3.03,3.146,6.06,3.161-7.526,6.324-15.052Z" transform="translate(36.234 44.503)" fill="#a32413"/>
      <path id="Path_11289" data-name="Path 11289" d="M50.63,65.691c4.907,11.509,5.744,24.256,6.66,36.751q1.025-2.224,2.048-4.452,3.272,4.83,6.542,9.662,3.684-9.257,7.37-18.512,4.956,10,9.909,20,1.86-8.067,3.719-16.135l3.382,7.455A165.668,165.668,0,0,1,88.51,70.423c.545-16.4,3.328-33.819-4.12-48.437C78.484,10.4,66.454,2.4,53.588.481S27.28,2.476,16.825,10.213A60.731,60.731,0,0,0,0,29.794a29.375,29.375,0,0,1,14.5,7.119,16.572,16.572,0,0,1,8.067.986,21.156,21.156,0,0,1,8.466,6.6C39.8,48.439,46.78,56.664,50.63,65.691Z" transform="translate(5.199 0)" fill="#ed2e13"/>
      <path id="Path_11290" data-name="Path 11290" d="M0,11.88c2.876,1.167,5.7,1.9,8.58,3.064C9.994,10.371,14.7,7.7,19.7,7.119A29.38,29.38,0,0,0,5.2,0,68.974,68.974,0,0,0,0,11.88Z" transform="translate(0 29.794)" fill="#a32413"/>
      <path id="Path_11291" data-name="Path 11291" d="M24.858,53.725c-6.179-11.37-7.564-24.658-8.521-37.564l-.095-1.287q-.432.938-.863,1.877L9.47,0,3.146,15.052Q1.572,12.023,0,8.993C.115,21.8.71,34.447,6.059,45.887a49.166,49.166,0,0,0,30.4,26.026,42.005,42.005,0,0,0,9.315,1.558A48.026,48.026,0,0,1,24.858,53.725Z" transform="translate(46.251 87.567)" fill="#e3d09a"/>
      <path id="Path_11292" data-name="Path 11292" d="M60.3,63.674c-4.209.535-8.413-1.639-11.292-4.757S44.361,51.835,42.8,47.89a166,166,0,0,1-9.829-36.567q-1.691-3.728-3.382-7.455Q27.728,11.936,25.869,20,20.913,10,15.96,0,12.274,9.257,8.59,18.512,5.319,13.679,2.048,8.849,1.023,11.077,0,13.3l.1,1.287c.957,12.906,2.342,26.195,8.521,37.564A48.03,48.03,0,0,0,29.534,71.9,52.733,52.733,0,0,0,60.3,63.674Z" transform="translate(62.491 89.142)" fill="#f4eabb"/>
    </g>
    <path id="Path_11209" data-name="Path 11209" d="M1237.419,560.586h25.339a.523.523,0,1,0,0-1.045h-24.945L1229,528.791l-.5-.378h-5.513a.523.523,0,1,0,0,1.046h5.119l8.817,30.749.5.378Z" transform="translate(13501.914 10786.85)" fill="#fff"/>
    <path id="Path_11210" data-name="Path 11210" d="M1234.2,542.19a3.063,3.063,0,1,0,3.063-3.065,3.062,3.062,0,0,0-3.062,3.065Z" transform="translate(13526.597 10809.371)" fill="#fff"/>
    <path id="Path_11211" data-name="Path 11211" d="M1227.016,542.19a3.063,3.063,0,1,0,3.062-3.065,3.062,3.062,0,0,0-3.062,3.065Z" transform="translate(13511.497 10809.371)" fill="#fff"/>
    <path id="Path_11212" data-name="Path 11212" d="M1487.372,753.379c0,5.184-39.848,9.385-89,9.385s-89-4.2-89-9.385,39.848-9.381,89-9.381,89,4.2,89,9.381Z" transform="translate(13684.617 11240.066)" fill="#eee4f1"/>
    <path id="Path_11213" data-name="Path 11213" d="M1336.64,744.465c-.748,1.455-4.328,4.818-9.288,7.033s-15.465,3.254-9.626,5.205,12.641.769,16.091.217a69.177,69.177,0,0,1,10.855-.655c5.364-.037,5.407-.369,4.685-6.415-1-8.323-10.3-10.089-12.716-5.386Z" transform="translate(13698.581 11235.664)" fill="#9e94c6"/>
    <path id="Path_11214" data-name="Path 11214" d="M1362.006,744.529c-.3,1.678,2.085,6.766-2.178,10.5s-13.948,7.665-7.529,7.811,12.574-1.34,15.844-2.95.657-4.151,4.706-5.426c5.333-1.685,4.231-5.606,1.461-8.032-3.552-7.991-11.342-7.334-12.3-1.9Z" transform="translate(13770.383 11232.582)" fill="#9e94c6"/>
    <path id="Path_11216" data-name="Path 11216" d="M1321.305,715.419c-.7-16.8,17.515-14.6,24.235-2.047,13.892,25.953-5.125,85.728-7.638,114.051-2.612,1.011-6.989,1.8-9.617.6a6.716,6.716,0,0,1-2.8-3.09c.4-34.745-3.434-91.547-4.185-109.513Z" transform="translate(13709.677 11154.692)" fill="#341a88"/>
    <path id="Path_11217" data-name="Path 11217" d="M1344.876,779.608c-2.1,6.859-25.352,14.078-23.465-10.9.834-11.075,3.062-72.233,3.493-78.127s1.414-14.512,4.263-15.586c14.249-5.379,39.451,13.25,35.7,35.387-2.5,14.8-15.647,54.994-19.991,69.221Z" transform="translate(13709.711 11093.048)" fill="#341a88"/>
    <path id="Path_11218" data-name="Path 11218" d="M1341.409,721.019c-5.621-15.846,12.645-18.651,23-8.888,24.259,22.864,25.2,76.737,31.146,104.546a21.278,21.278,0,0,1-10.607,3.037,3.791,3.791,0,0,1-2.891-1.48c-9.856-33.318-34.637-80.271-40.652-97.215Z" transform="translate(13749.771 11161.173)" fill="#341a88"/>
    <path id="Path_11219" data-name="Path 11219" d="M1380.4,780.115c.636,7.145-18.747,21.911-26.379-1.939-3.384-10.578-17.872-73.089-19.687-78.713s-1.319-17.239.918-19.306c11.187-10.337,36.436-1.247,41.275,20.677,3.239,14.655,2.556,64.465,3.871,79.281Z" transform="translate(13734.777 11096.903)" fill="#341a88"/>
    <path id="Path_11220" data-name="Path 11220" d="M1316.25,642.819c.661-.7,1.322-1.4,1.911-2.153,4.595-5.876,5.265-11.084,9.521-17.9.614-.984,1.467-3.583,3.093-5.919,1.7-2.444,5.835-5.1,6.909-5.665,1.988-1.039.279,3.344.279,3.344s1.688-2.448,3.319-2.274c.636.068.748,3.807.757,4.445a31.411,31.411,0,0,1-3.487,14.844,7.619,7.619,0,0,0-1.188,3.369c1.514-.031,2.786-1.08,4.008-1.973s2.761-1.712,4.194-1.222a11.6,11.6,0,0,1-.807,1.753c-1.815,3.406-3.853,7.033-7.339,8.69-2.085.986-4.5,1.163-6.531,2.246-3.676,1.954-5.463,6.477-9.195,8.326" transform="translate(13699.089 10960.51)" fill="#f4eabb"/>
    <path id="Path_11221" data-name="Path 11221" d="M1331.542,643.184l-10.954-4.582a2.006,2.006,0,0,1-1.077-2.621l9.735-23.276a2.009,2.009,0,0,1,2.625-1.076l10.951,4.582a2,2,0,0,1,1.076,2.621l-9.735,23.276a2.007,2.007,0,0,1-2.621,1.076Z" transform="translate(13705.622 10961.464)" fill="#4e3997"/>
    <path id="Path_11222" data-name="Path 11222" d="M1332.145,641.168l-12.281-5.137,10.069-24.077,12.282,5.137-10.07,24.077Z" transform="translate(13706.686 10962.475)" fill="#b6aad2"/>
    <path id="Path_11223" data-name="Path 11223" d="M1382.3,646.566a86.82,86.82,0,0,0-17.745,3c-12.626,3.791-16.969,9.639-21.331,12.055,8.475-10.765,17.919-33.594,17.919-33.594s-11.391-9.356-12.7-7.141-49.118,58.158-47.62,67.216c.618,3.735,6.152,7.427,11.044,7.259,13.557-.465,29.3-5.4,45.805-10.8,7.253-2.373,9.49,2.742,9.49,2.742" transform="translate(13666.596 10980.533)" fill="#6e55a6"/>
    <path id="Path_11224" data-name="Path 11224" d="M1320,637.713s-6.022,12.136-7.83,12.927,4.39-2.528,7.781-6.031,8.032-12.695,8.032-12.695c-1.781.729-7.982,5.8-7.982,5.8Z" transform="translate(13689.827 11004.438)" fill="#583d9a"/>
    <path id="Path_11225" data-name="Path 11225" d="M1325.674,614.829a2.748,2.748,0,0,1,.853,1.911c.412,2.686.809,5.537-.233,8.047a11.6,11.6,0,0,1-3.239,4.12,25.4,25.4,0,0,1-4.926,3.369" transform="translate(13703.041 10968.519)" fill="#f4eabb"/>
    <path id="Path_11215" data-name="Path 11215" d="M1400.267,733.588s12.781-37.577-23.481-68.532c0,0-19.433,7.737-34.993,8.671-12.257.735-18.477-.394-18.477-.394s-1.033,33.383-1.077,51.376l78.028,8.879Z" transform="translate(13711.682 11074.109)" fill="#341a88"/>
    <path id="Path_11228" data-name="Path 11228" d="M1320.106,640.256c3.943-4.52,16.451-11.971,33.172-11.444,11.519.363,42.892,2.265,46.4,9.971,1.793,3.94,3.717,44.282,1.092,58.189-1.973,10.461-7.02,36.371-7.02,42.625s3.36,8.931,1.793,10.749c-3.511,4.067-27.517,5.773-38.787,5.773-10.03,0-27.1-2.674-27.97-5.888-1.284-4.768,1.957-4.591,2.4-9.592s1.707-37.46-.136-42.771c-3.323-9.592-4.936-25.234-7.573-32.326-2-5.385-7.306-20.766-3.366-25.286Z" transform="translate(13704.213 10997.859)" fill="#6e55a6"/>
    <path id="Path_11229" data-name="Path 11229" d="M1370.964,643.177c1.194,2.488,9.313,15.542,9.313,15.542l.329,1.563a64.5,64.5,0,0,1-.825,6.974c-1.973,10.461-7.02,36.371-7.02,42.625s3.217,8.82,1.793,10.749c-2.767,3.751-48.032,12.186-45.8,1.713.2-.946,37.991-29.782,38.192-30.746,1.74-8.274,3.26-14.236,4.023-20.27,1.837-14.522-1.194-30.638,0-28.15Z" transform="translate(13725.2 11027.574)" fill="#583d9a"/>
    <path id="Path_11230" data-name="Path 11230" d="M1329.446,629.736s-.105,13.123-.632,13.653a20.715,20.715,0,0,1-3.124,1.756s1.849,11.4,4.707,10.557,21.731-10.377,21.731-10.377-2.677-1.089-2.677-2.147,2.541-21.7,2.541-21.7" transform="translate(13718.934 10982.503)" fill="#f4eabb"/>
    <path id="Path_11232" data-name="Path 11232" d="M1328.909,634.162s-1.1,51.206-3.185,82.355l7.529,10.384,5.174-13a395.972,395.972,0,0,0-4.9-79.378l-4.623-.357Z" transform="translate(13719.005 11009.161)" fill="#1b0361"/>
    <path id="Path_11233" data-name="Path 11233" d="M1326.191,634.9l.177.7a14.291,14.291,0,0,0,1.557,3.794l4.622.357s3.139-1.647,3.555-3.415-5.156-4.669-5.156-4.669l-.677.267a10.057,10.057,0,0,0-4.021,2.894l-.058.068Z" transform="translate(13719.989 11003.925)" fill="#1b0361"/>
    <path id="Path_11234" data-name="Path 11234" d="M1345.494,627.446a19.293,19.293,0,0,1,5.271,5.342c-2.376,5.435-7.746,15.092-13.662,19.491a26.729,26.729,0,0,0-9.378-11.726s16.116-2.867,17.77-13.107Z" transform="translate(13723.211 10995.043)" fill="#fff"/>
    <path id="Path_11235" data-name="Path 11235" d="M1334.127,640.084a19.874,19.874,0,0,0-9.189,8.736s-1.108-8.724,1.247-16.212c0,0,3.785-4.84,5.094-4.939-.54,6.167,2.848,12.415,2.848,12.415Z" transform="translate(13716.809 10995.513)" fill="#fff"/>
    <path id="Path_11236" data-name="Path 11236" d="M1335.788,668.522c-5.724.862-7.839,2.991-11.066,6.177a1.194,1.194,0,0,0-.481.952c.075.456.612.661,1.068.732,2.658.428,3.09-1.272,5.575-2.308,1.678-.7,3.344-1.427,5.014-2.156" transform="translate(13715.873 11081.395)" fill="#f4eabb"/>
    <path id="Path_11237" data-name="Path 11237" d="M1355.318,656.93l20.283,65a2.326,2.326,0,0,1-2.15,3.26l-42.321,3.714a3.922,3.922,0,0,1-3.546-2.733l-21.809-64.015c-.543-1.743,1.973-4.237,3.676-4.25l42.318-3.713a3.921,3.921,0,0,1,3.549,2.733Z" transform="translate(13676.911 11051.28)" fill="#ede4f1"/>
    <path id="Path_11238" data-name="Path 11238" d="M1353.887,657.477l20,64a2.328,2.328,0,0,1-2.15,3.264l-42.32,3.713a3.927,3.927,0,0,1-3.546-2.733l-20-64a2.327,2.327,0,0,1,2.15-3.264l42.318-3.713a3.927,3.927,0,0,1,3.549,2.733Z" transform="translate(13676.952 11052.432)" fill="#e4d5e9"/>
    <path id="Path_11239" data-name="Path 11239" d="M1310.348,656.124l1.5,5.612,19.8-1.75-1.629-5.587-19.668,1.725Z" transform="translate(13686.684 11051.706)" fill="#fff"/>
    <path id="Path_11240" data-name="Path 11240" d="M1313.817,656.812a2.167,2.167,0,0,1,1.784-3.022,3.6,3.6,0,0,1,3.518,2.532,2.169,2.169,0,0,1-1.783,3.025,3.6,3.6,0,0,1-3.518-2.535Zm-2.091.13c.406,1.306,1.979,6.347,1.979,6.347l9.449-.875-1.982-6.347a6.426,6.426,0,0,0-6.27-4.517c-2.609.242-4.033,2.656-3.177,5.392Z" transform="translate(13689.057 11045.676)" fill="#fff"/>
    <path id="Path_11241" data-name="Path 11241" d="M1352.875,667.059c-4.44.924-16.271,4.455-17.515,5.041a52.358,52.358,0,0,0-7.545,5.578c-4.452,4.464-2.175,6.549-3.93,12.608a3.515,3.515,0,0,0-.109.958c0,.633.853,1.176,1.712.586.466.782,1.84.3,2.506-.552-.012.6.838.986,2.2.233.735-.406.6-.369,2.3-1.886a17.871,17.871,0,0,1,4.815-2.932,35.028,35.028,0,0,0,4.7-2.147c1.8-1.182,5-1.464,6.583-6.6a5.114,5.114,0,0,1,2.469-2.466l7.235-4.536" transform="translate(13714.912 11078.32)" fill="#f4eabb"/>
    <path id="Path_11242" data-name="Path 11242" d="M1365.26,660.7c1.883,6.713,9.713,53.232,9.713,53.232l-44.111,31.947,3.67,9.648s52.778-17.72,56.935-29.834,3.965-66.832-10.69-86.029c-4.669-6.111-14.019-9.2-14.019-9.2" transform="translate(13729.809 11001.404)" fill="#6e55a6"/>
    <path id="Path_11243" data-name="Path 11243" d="M1331.863,672.458s-.441.406-1.1,1.014a15.147,15.147,0,0,0-2.283,2.249c-.739.906-1.48,1.843-2.122,2.482a9.546,9.546,0,0,1-1.126,1.011,21.353,21.353,0,0,1,2.69-3.971,10.272,10.272,0,0,1,2.621-2.075l1.325-.71Z" transform="translate(13717.964 11089.67)" fill="#dfd5aa"/>
    <path id="Path_11244" data-name="Path 11244" d="M1331.008,671.516a6.5,6.5,0,0,0-1.234,1.4c-.342.441-.717.977-1.092,1.564-.192.292-.388.592-.586.9a4.889,4.889,0,0,0-.494.943,22.814,22.814,0,0,1-3.124,5.19s.251-.723.714-1.756,1.111-2.382,1.737-3.732a13.688,13.688,0,0,1,2.55-3.369,6.2,6.2,0,0,1,1.529-1.138Z" transform="translate(13716.387 11087.688)" fill="#dfd5aa"/>
    <path id="Path_11245" data-name="Path 11245" d="M1329.155,670.754a16.187,16.187,0,0,1-1.067,1.5c-.326.441-.766.918-1.129,1.464-.285.524-.561,1.263-.837,1.9-.546,1.337-1.042,2.687-1.433,3.707-.375,1.024-.655,1.715-.655,1.715a10.5,10.5,0,0,1,.192-1.839,15.765,15.765,0,0,1,1.226-3.872,11.154,11.154,0,0,1,1.07-1.936,14.535,14.535,0,0,1,1.328-1.365,15.814,15.814,0,0,0,1.306-1.278Z" transform="translate(13715.452 11086.088)" fill="#dfd5aa"/>
    <path id="Path_11248" data-name="Path 11248" d="M1326.975,624.5l8.109,1.492s-2.708,3.031-8.215,3.031" transform="translate(13721.415 10988.858)" fill="#f79069"/>
    <g id="Group_760" data-name="Group 760" transform="translate(14413.847 11470.836)">
      <g id="Group_759" data-name="Group 759" transform="translate(0 0)" clip-path="url(#clip-path)">
        <rect id="Rectangle_1042" data-name="Rectangle 1042" width="8.879" height="8.987" fill="#c7bbdb"/>
      </g>
    </g>
    <path id="Path_11250" data-name="Path 11250" d="M1133.816,610.552c-12.679,0-22.957-9.7-22.957-21.666s10.278-21.666,22.957-21.666,22.957,9.7,22.957,21.666a20.828,20.828,0,0,1-5.017,13.516,22.634,22.634,0,0,1-5.215,4.517,23.818,23.818,0,0,1-12.725,3.633m-4-30.408a1.627,1.627,0,0,0-1.625,1.625v15.487a1.62,1.62,0,0,0,2.436,1.405l13.411-7.743a1.622,1.622,0,0,0,0-2.811l-13.411-7.743a1.615,1.615,0,0,0-.81-.22" transform="translate(13267.307 10868.433)" fill="#c7bbdb"/>
    <path id="Path_11251" data-name="Path 11251" d="M1118.073,590.124a1.625,1.625,0,0,1-1.626-1.626V573.012a1.62,1.62,0,0,1,2.436-1.405l13.411,7.743a1.622,1.622,0,0,1,0,2.811l-13.411,7.743a1.613,1.613,0,0,1-.81.22" transform="translate(13279.055 10877.19)" fill="#fff"/>
    <path id="Path_11252" data-name="Path 11252" d="M1360.418,640.65l3.664-8.987a22.758,22.758,0,0,0,5.218,4.52l-8.881,4.467" transform="translate(13791.942 11003.908)" fill="#b8a6d0"/>
    <path id="Path_11253" data-name="Path 11253" d="M1390.544,659.413q-1.638-1.871-3.27-3.816l-2.712-3.245c.984-.034,1.954-.081,2.9-.142,1.455-.1,2.714-2.28.946-2.969a3.22,3.22,0,0,0,1.824-1.5,1.452,1.452,0,0,0-.888-1.951,1.477,1.477,0,0,0,.357.043c1.468,0,1.967-2.3.711-3.074a3.81,3.81,0,0,0,1.464-2.215,2.173,2.173,0,0,0-1.058-2.289,4,4,0,0,0-1.8-.295q-3.118-.019-6.242-.043c.565-3.071.733-6.422-.921-9.121a2.88,2.88,0,0,0-2.162-1.359,1.428,1.428,0,0,0-.739.2c-1,.586-.72,2.044-.67,2.963a10.217,10.217,0,0,1-4.411,8.714c-3.921-4.9-7.607-9.7-11.019-14.469a23.764,23.764,0,0,1,14.044-4.526c12.679,0,22.956,9.7,22.956,21.666a21.267,21.267,0,0,1-9.313,17.425" transform="translate(13797.068 10980.067)" fill="#c7bbdb"/>
    <path id="Path_11254" data-name="Path 11254" d="M1382.94,660.587a23.84,23.84,0,0,1-12.726-3.629,22.766,22.766,0,0,1-5.218-4.52,20.844,20.844,0,0,1-5.013-13.516,21.229,21.229,0,0,1,8.912-17.14c3.413,4.765,7.1,9.564,11.019,14.469a10.5,10.5,0,0,1-1.262.754s.236,8.141.183,12.294c2.187.034,4.383.068,6.549.068,1.768,0,3.515-.022,5.218-.081l2.711,3.245q1.633,1.945,3.27,3.816a23.764,23.764,0,0,1-13.644,4.241M1369.46,637v12.282h7.563V637h-7.563" transform="translate(13791.028 10983.134)" fill="#b8a6d0"/>
    <path id="Path_11255" data-name="Path 11255" d="M1377.1,647.528c-3.716-4.458-7.29-8.785-10.687-13.035a10.218,10.218,0,0,0,4.411-8.714c-.05-.918-.326-2.376.67-2.963a1.427,1.427,0,0,1,.739-.2,2.879,2.879,0,0,1,2.162,1.359c1.654,2.7,1.486,6.049.922,9.121q3.123.023,6.242.043a4,4,0,0,1,1.8.295,2.173,2.173,0,0,1,1.058,2.289,3.81,3.81,0,0,1-1.464,2.215c1.256.779.757,3.074-.711,3.074a1.475,1.475,0,0,1-.357-.043,1.452,1.452,0,0,1,.888,1.951,3.221,3.221,0,0,1-1.824,1.5c1.768.689.509,2.873-.946,2.969-.949.062-1.92.108-2.9.142" transform="translate(13804.534 10984.891)" fill="#fff"/>
    <path id="Path_11256" data-name="Path 11256" d="M1372.733,639.561c-2.165,0-4.362-.034-6.549-.068.053-4.154-.183-12.294-.183-12.294a10.5,10.5,0,0,0,1.263-.754c3.4,4.25,6.971,8.578,10.688,13.036-1.7.059-3.45.081-5.218.081" transform="translate(13803.681 10992.939)" fill="#f4edf5"/>
    <path id="Path_11257" data-name="Path 11257" d="M1370.6,638.97h-7.564V626.688h7.564V638.97" transform="translate(13797.45 10993.45)" fill="#f4edf5"/>
    <path id="Path_11258" data-name="Path 11258" d="M1254.363,574.758a15.334,15.334,0,0,0-2.177-3.934l7.107-1.393-4.929,5.326" transform="translate(13564.41 10873.08)" fill="#b8a6d0"/>
    <path id="Path_11259" data-name="Path 11259" d="M1259.108,599.188c-9.2,0-16.65-7.033-16.65-15.71s7.454-15.71,16.65-15.71a16.947,16.947,0,0,1,13.526,6.552,15.331,15.331,0,0,1,2.177,3.934,14.878,14.878,0,0,1,.943,5.224c0,8.677-7.455,15.71-16.647,15.71m1.328-26.26a.865.865,0,0,0-.484.146c-.651.425-.472,1.483-.437,2.15a7.6,7.6,0,0,1-3.72,6.865s.156,5.9.121,8.916c1.43.025,2.866.046,4.284.046,1.83,0,3.626-.037,5.327-.161.955-.068,1.777-1.65.62-2.153a2.174,2.174,0,0,0,1.194-1.083,1.086,1.086,0,0,0-.58-1.415.888.888,0,0,0,.232.031c.962,0,1.291-1.666.466-2.23a2.791,2.791,0,0,0,.959-1.6,1.64,1.64,0,0,0-.692-1.663,2.387,2.387,0,0,0-1.182-.211q-2.043-.019-4.089-.034c.369-2.227.481-4.656-.6-6.614a1.885,1.885,0,0,0-1.418-.987m-10.662,9.161v8.907h4.954v-8.907h-4.954" transform="translate(13543.961 10869.584)" fill="#b8a6d0"/>
    <path id="Path_11260" data-name="Path 11260" d="M1251.162,587.554c-1.418,0-2.854-.022-4.284-.046.034-3.012-.121-8.916-.121-8.916a7.6,7.6,0,0,0,3.72-6.865c-.034-.667-.214-1.725.437-2.15a.865.865,0,0,1,.484-.146,1.884,1.884,0,0,1,1.418.987c1.083,1.957.971,4.387.6,6.614,1.365.013,2.727.022,4.089.034a2.387,2.387,0,0,1,1.182.211,1.64,1.64,0,0,1,.692,1.663,2.791,2.791,0,0,1-.959,1.6c.825.565.5,2.231-.465,2.231a.888.888,0,0,1-.232-.031,1.086,1.086,0,0,1,.58,1.415,2.173,2.173,0,0,1-1.194,1.083c1.157.5.335,2.085-.62,2.153-1.7.124-3.5.161-5.327.161" transform="translate(13552.998 10873.08)" fill="#f4edf5"/>
    <path id="Path_11261" data-name="Path 11261" d="M1249.77,581.291h-4.954v-8.907h4.954v8.907" transform="translate(13548.919 10879.29)" fill="#f4edf5"/>
    <path id="Path_11262" data-name="Path 11262" d="M1310.487,572.4l-9.511-5.072a24.658,24.658,0,1,1,5.584-5.137l3.927,10.21M1281.2,538.462a6,6,0,0,0-4.287,10.2l5.739,5.86a5.98,5.98,0,0,0,4.287,1.8,6.064,6.064,0,0,0,.915-.071,5.954,5.954,0,0,0,3.279-1.641l.034-.04,5.832-5.745a6,6,0,1,0-8.413-8.547l-1.572,1.548-1.53-1.56a5.979,5.979,0,0,0-4.284-1.8" transform="translate(13586.729 10774.044)" fill="#b8a6d0"/>
    <path id="Path_11263" data-name="Path 11263" d="M1278.539,545.384a5.98,5.98,0,0,1-4.287-1.8l-5.739-5.86a6,6,0,1,1,8.571-8.395l1.53,1.56,1.573-1.548a6,6,0,1,1,8.413,8.547l-5.832,5.745-.034.04a5.954,5.954,0,0,1-3.279,1.641,6.018,6.018,0,0,1-.915.072" transform="translate(13595.134 10784.982)" fill="#f4eff6"/>
    <text id="_" data-name=" " transform="translate(14181.271 11589.591)" fill="#857c76" font-size="17" font-family="OpenSans, Open Sans"><tspan x="0" y="0"> </tspan></text>
    <g id="Group_754" data-name="Group 754" transform="translate(15119.69 11609.912) rotate(159)">
      <path id="Path_10892" data-name="Path 10892" d="M14.684,0c2.366,6.362-.183,13.5-3.648,19.335S3.115,30.573,1.212,37.087C-.353,42.444-.064,48.144.24,53.718Q1.154,70.509,2.067,87.3A227.116,227.116,0,0,0,25.474,33.749C22.387,23.266,17.771,10.482,14.684,0Z" transform="translate(0 16.673)" fill="#ed2e13"/>
      <path id="Path_10893" data-name="Path 10893" d="M16.271,13.436A118.354,118.354,0,0,1,.049,50.751C-.545,33.355,4.317,15.347,12.531,0c1.391,4.03,2.348,9.406,3.74,13.436Z" transform="translate(5.705 36.809)" fill="#e3d09a"/>
      <path id="Path_10894" data-name="Path 10894" d="M24.893,0A350.526,350.526,0,0,1,14.087,66.534,115.859,115.859,0,0,1,.017,9.349C7.8,6.112,17.106,3.237,24.893,0Z" transform="translate(44.916 51.706)" fill="#ed2e13"/>
      <path id="Path_10895" data-name="Path 10895" d="M12.952,0q-.792,12.981-1.587,25.962c-.426,6.965-1.151,14.446-4.817,20.383A102,102,0,0,1,.176,4.432C4.025,1.837,8.371.743,12.952,0Z" transform="translate(50.443 58.144)" fill="#e3d09a"/>
      <path id="Path_10904" data-name="Path 10904" d="M39.566,38.93c-4.107,2.636-9.89,4.136-14.215,1.875A47.632,47.632,0,0,1,5.443,20.99,47.645,47.645,0,0,1,0,.312,53.1,53.1,0,0,1,9.64.146c12.951,1.008,25.9,7.417,32.623,18.533a42.477,42.477,0,0,1,4.489,11.844,19.518,19.518,0,0,1-7.186,8.407Z" transform="translate(33.976 0)" fill="#f4eabb"/>
      <path id="Path_10905" data-name="Path 10905" d="M55.206,58.4c-2.961,2.195-5.689,4.861-9.161,6.1-3.881,1.386-8.251.78-12.059-.8a50.505,50.505,0,0,1-10.474-6.5c-4.7-3.479-9.7-7.392-11.184-13.048-.972-3.7-.264-7.611-.279-11.44A30.515,30.515,0,0,0,0,8.783C8.821,4.53,18.716,1.033,28.6,0a47.644,47.644,0,0,0,5.443,20.678A47.632,47.632,0,0,0,53.951,40.493c4.325,2.261,10.108.761,14.216-1.875a19.519,19.519,0,0,0,7.186-8.407c1.754,7.06,2.817,14.548,5.978,20.7A39.069,39.069,0,0,0,55.206,58.4Z" transform="translate(5.375 0.31)" fill="#ed2e13"/>
      <path id="Path_10906" data-name="Path 10906" d="M9.763,5.842A5.721,5.721,0,0,1,1.72,4.966L0,2.824,1.944,1.262a5.72,5.72,0,0,1,8.043.875l1.72,2.142L9.763,5.842Z" transform="translate(26.361 37.082)" fill="#2e1416"/>
      <path id="Path_10907" data-name="Path 10907" d="M4.723,8.048C2.123,8.364.012,6.1.006,2.986L0,.28,2.052.029c2.6-.315,4.711,1.952,4.717,5.064L6.775,7.8l-2.052.249Z" transform="translate(53.976 48.845)" fill="#2e1416"/>
      <path id="Path_10908" data-name="Path 10908" d="M10.749,8.3c1.2-1.736-.138-4.738-2.984-6.7S1.638-.546.439,1.192s.138,4.737,2.985,6.7,6.126,2.148,7.325.411Z" transform="translate(53.051 35.885)" fill="#2e1416"/>
    </g>
    <g id="Group_763" data-name="Group 763" transform="matrix(0.985, 0.174, -0.174, 0.985, 14906.471, 11274.168)">
      <path id="Path_10921" data-name="Path 10921" d="M23.453,38.867A92.148,92.148,0,0,1,0,0,36.694,36.694,0,0,0,14.8,12.747c3.6,1.794,7.475,2.991,11.056,4.818S32.827,22,34.459,25.68A39.569,39.569,0,0,0,23.453,38.867Z" transform="translate(0 20.084)" fill="#a32413"/>
      <path id="Path_10922" data-name="Path 10922" d="M0,0A95.758,95.758,0,0,0,19.312,20.869c-.533,1.872-1.151,3.639-1.686,5.511C10.813,18.481,5.052,9.127,0,0Z" transform="translate(5.485 30.654)" fill="#e3d09a"/>
      <path id="Path_10928" data-name="Path 10928" d="M72.59,39.949c-3.27-7.31-3.759-10.813-8.229-17.488a38.181,38.181,0,0,0-3.2-4.516,30.477,30.477,0,0,0-4.9-3.652q-5.407-3.859-10.817-7.716C43.145,4.932,40.865,2.861,38.478,1.4,36.275.043,32.826-.128,30.307.067a19.974,19.974,0,0,0-10.3,4.122c-1.822,1.37-3.414,3-5.179,4.4A9.653,9.653,0,0,0,11.71,13.5a21.4,21.4,0,0,0-.119,9.835c.516,2.877,1.508,4.513-.451,6.879A139.921,139.921,0,0,0,0,45.311l.263.187L26.8,35.381c5.36-2.045,10.812-4.109,16.533-4.544a33.062,33.062,0,0,1,24.981,9.375c4.714,4.547-.124-4.343,1.818,1.926.064-.364,2.707,1.2,2.738.822.356-4.141.328-.313-1.369-4.106Z" transform="translate(11.236 38.166)" fill="#ed2e13"/>
      <path id="Path_10930" data-name="Path 10930" d="M68.047,9.457A33.058,33.058,0,0,0,43.065.083c-5.72.434-11.173,2.5-16.532,4.543L0,14.744,4.145,17.7a8.7,8.7,0,0,0,8.044,1.092L35.7,10.207C36.17,15.755,72.762,14,68.047,9.457Z" transform="translate(11.499 68.92)" fill="#f4eabb"/>
      <path id="Path_10933" data-name="Path 10933" d="M1.016,0a66.056,66.056,0,0,0,8.1,44.927,3.77,3.77,0,0,0,4.818,1.434,15.543,15.543,0,0,1,10.588-.5,14.574,14.574,0,0,0,3.766,1.024,2.876,2.876,0,0,0,3.029-1.944,4.01,4.01,0,0,0-.707-2.595q-2.182-4.024-4.362-8.047a43.1,43.1,0,0,0-6.019-9.149c-2.553-2.729-5.8-4.775-8.144-7.686C7.8,12.143,5.746,4.94,1.016,0Z" transform="translate(22.883 0)" fill="#ed2e13"/>
      <path id="Path_10934" data-name="Path 10934" d="M18.418,32.92a5.637,5.637,0,0,0-.329-4.533,18.664,18.664,0,0,0-2.709-3.8A106.417,106.417,0,0,1,.018,0a68.329,68.329,0,0,0,5.03,27.33C6.5,30.9,8.726,34.722,12.484,35.567c2.294.517,5.019-.48,5.934-2.647Z" transform="translate(25.17 7.948)" fill="#e3d09a"/>
      <path id="Path_10935" data-name="Path 10935" d="M6.568.211a4.717,4.717,0,0,0-5.9,3.115L0,5.49,1.966,6.1a4.719,4.719,0,0,0,5.9-3.116L8.533.818,6.568.211Z" transform="translate(30.281 59.47)" fill="#2e1416"/>
    </g>
    <g id="Group_764" data-name="Group 764" transform="translate(15073.668 11301.096) rotate(43)">
      <path id="Path_11293" data-name="Path 11293" d="M13.126,54.64Q16.99,50.623,20.86,46.6q1.766,7.249,3.528,14.494,3.286-4.411,6.573-8.819,5.48,10.746,10.956,21.49,2.828-11.729,5.655-23.456,3.384,6.063,6.771,12.126Q55.649,52.216,56.958,42,63.4,51.333,69.85,60.672q1.5-8.086,3-16.175l4.636,5.735a48.16,48.16,0,0,1,4.918-22.048c6.2-12.463,17.9-24.666,31.43-27.929-18.1-.4-36.375-.788-54.146,2.688S24.446,14.117,12.349,27.592A62.938,62.938,0,0,0,0,48.476q5.954-4.032,11.905-8.069.612,7.115,1.221,14.234Z" transform="translate(3.773 0)" fill="#f4eabb"/>
      <path id="Path_11294" data-name="Path 11294" d="M14.215,5.168A38.264,38.264,0,0,0,5.33,0C6.59,6.131,4.954,12.98,0,16.7c2.157,2.154,6.73,4.539,8.885,6.7a53.6,53.6,0,0,0,15.469-6.073A38.535,38.535,0,0,0,14.215,5.168Z" transform="translate(57.085 151.865)" fill="#a32413"/>
      <path id="Path_11295" data-name="Path 11295" d="M85.164,28.211a47.776,47.776,0,0,1-3.9-18.385L76.626,4.09q-1.5,8.09-3,16.175Q67.178,10.927,60.73,1.589q-1.31,10.219-2.615,20.442-3.384-6.063-6.771-12.126L45.689,33.362q-5.477-10.746-10.957-21.49-3.286,4.411-6.572,8.819Q26.4,13.444,24.633,6.2q-3.868,4.018-7.734,8.038Q16.287,7.116,15.678,0,9.728,4.036,3.773,8.069A63.455,63.455,0,0,0,.5,37.423,63.973,63.973,0,0,0,28.4,82.029C34.432,86,41.1,88.9,47.2,92.772s11.781,8.972,14.37,15.711a19.125,19.125,0,0,1,.844,2.977,37.643,37.643,0,0,1,19.023,17.322,54.152,54.152,0,0,0,21.777-70.917C98.126,47.455,89.8,38.832,85.164,28.211Z" transform="translate(0 40.406)" fill="#ed2e13"/>
    </g>
    <path id="Path_11167" data-name="Path 11167" d="M1369.4,575.334a353.1,353.1,0,0,1-38.514,1.228c-4.92,0-42.125,6.98-45.684,13.284-5.854,10.371,3.819,70.98,2.922,114.371,0,0,4.461,3.722,12.35.223,1.96-21.315,14.556-71.6,5.866-95.075,20.512,2.724,37.06,5.426,55.7-.754,4.365-1.446,7.629-4.529,9.593-10.172,1.967-5.662.94-18.043-2.237-23.106" transform="translate(13629.828 10885.49)" fill="#260571"/>
  </g>
</svg>
